<?xml version="1.0" encoding="utf-8"?>
<!-- Generator: Adobe Illustrator 26.2.1, SVG Export Plug-In . SVG Version: 6.00 Build 0)  -->
<svg version="1.1" xmlns="http://www.w3.org/2000/svg" xmlns:xlink="http://www.w3.org/1999/xlink" x="0px" y="0px"
	 viewBox="0 0 500 500" style="enable-background:new 0 0 500 500;" xml:space="preserve">
<style type="text/css">
	.st0{fill:#EBEBEB;}
	.st1{fill:#E0E0E0;}
	.st2{fill:#FFFFFF;}
	.st3{display:none;}
	.st4{display:inline;fill:#F5F5F5;}
	.st5{fill:#E8505B;}
	.st6{opacity:0.4;}
	.st7{fill:#263238;}
	.st8{opacity:0.2;}
	.st9{fill:#FAFAFA;}
	.st10{opacity:0.3;}
	.st11{fill:#FFBE9D;}
	.st12{fill:#455A64;}
	.st13{fill:#F5F5F5;}
	.st14{fill:#EB996E;}
</style>
<g id="Background_Complete">
	<g>
		<g>
			<path class="st0" d="M466.9,267.9c0,0-7.8-6-19.1,12.8c-11.3,18.8-15.9,29.7-15.9,29.7s-2.9,3.9-5.5,1
				c-2.6-2.9-5.9-10.7-10.8-9.7c-5,1.1-7.1,6.5-6.7,14.6c0.4,8.2,0.5,26.1,0.5,27.7c0,1.6-1.1,3.9-3.2,2.2
				c-2.1-1.7-13.8-16.7-20.5-10.7c-6.8,6-2,28.6-1.6,31c0.5,2.5-0.1,3.5-1.3,4c-1.2,0.5-4.6-4.9-8.1-9c-3.5-4.1-8.3-8.3-11.9-4.5
				c-3.6,3.8-5.9,20.3,8,48.4l7.3,12.6l14.6,0.2c31.3-1.4,44.7-11.4,46.3-16.4c1.5-5-4.4-7.2-9.7-8.2c-5.3-1.1-11.7-1.5-11.8-2.8
				c-0.1-1.3,0.5-2.3,2.9-3.1c2.4-0.8,24.5-7.5,26.4-16.4c1.9-8.8-16.8-11.8-19.3-12.8c-2.5-1-1-3.1,0.4-3.8
				c1.4-0.8,17.2-9.3,24.5-12.9c7.3-3.6,11.1-8,9.6-12.9c-1.5-4.8-9.9-3.9-13.7-4.8c-3.8-0.9-1.8-5.3-1.8-5.3s7.4-9.3,18.4-28.3
				c11-19,1.8-23,1.8-23"/>
		</g>
		<g>
			<g>
				<path class="st1" d="M456.7,284.7c0,0-0.1,0.1-0.2,0.4c-0.2,0.3-0.4,0.7-0.7,1.2c-0.6,1-1.5,2.6-2.6,4.5
					c-2.2,3.9-5.5,9.6-9.6,16.5c-8.1,13.9-19.5,33-32.1,54.1c-12.6,21.1-24.1,40.2-32.2,54c-4.1,6.9-7.4,12.5-9.7,16.4
					c-1.1,1.9-2,3.4-2.6,4.5c-0.3,0.5-0.5,0.9-0.7,1.2c-0.2,0.3-0.3,0.4-0.3,0.4s0.1-0.1,0.2-0.4c0.2-0.3,0.4-0.7,0.7-1.2
					c0.6-1,1.5-2.6,2.6-4.5c2.2-3.9,5.5-9.6,9.6-16.5c8.1-13.9,19.5-33,32.1-54.1c12.6-21.1,24-40.2,32.2-54
					c4.1-6.9,7.4-12.5,9.7-16.4c1.1-1.9,2-3.4,2.6-4.5c0.3-0.5,0.5-0.9,0.7-1.2C456.6,284.8,456.7,284.7,456.7,284.7z"/>
			</g>
		</g>
		<g>
			<g>
				<path class="st1" d="M419.8,312.9c0,0,0.1,0.4,0.3,1c0.2,0.7,0.4,1.6,0.6,2.8c0.5,2.4,1.1,5.7,1.7,9.3c0.6,3.6,1.1,6.8,1.5,9.3
					c0.2,1.1,0.3,2.1,0.5,2.8c0.1,0.7,0.2,1,0.1,1c0,0-0.1-0.4-0.3-1c-0.2-0.7-0.4-1.6-0.6-2.8c-0.5-2.4-1-5.7-1.6-9.3
					c-0.6-3.6-1.1-6.8-1.5-9.3c-0.2-1.1-0.4-2.1-0.5-2.8C419.8,313.3,419.8,312.9,419.8,312.9z"/>
			</g>
		</g>
		<g>
			<g>
				<path class="st1" d="M425.8,339.6c0-0.1,6.7-1.7,15-3.4c8.3-1.8,15.1-3.1,15.1-3c0,0.1-6.7,1.7-15,3.4
					C432.6,338.4,425.8,339.7,425.8,339.6z"/>
			</g>
		</g>
		<g>
			<g>
				<path class="st1" d="M404.9,371.1c0,0,0.4,0,1.1,0c0.8,0.1,1.8,0.1,2.9,0.2c2.5,0.2,5.9,0.4,9.6,0.5c3.8,0.1,7.2,0.1,9.6,0.1
					c1.2,0,2.1,0,2.9,0c0.7,0,1.1,0,1.1,0c0,0-0.4,0.1-1.1,0.1c-0.7,0.1-1.7,0.1-2.9,0.2c-2.5,0.1-5.9,0.2-9.7,0
					c-3.8-0.1-7.2-0.4-9.6-0.7c-1.2-0.1-2.2-0.3-2.9-0.4C405.3,371.2,404.9,371.1,404.9,371.1z"/>
			</g>
		</g>
		<g>
			<g>
				<path class="st1" d="M394.2,348.2c0,0,0.2,0.3,0.5,0.9c0.3,0.7,0.8,1.5,1.2,2.4c1,2,2.4,4.9,3.9,8c1.5,3.1,2.9,6,3.8,8.1
					c0.4,1,0.8,1.8,1.1,2.5c0.3,0.6,0.4,0.9,0.4,0.9c0,0-0.2-0.3-0.5-0.9c-0.3-0.7-0.8-1.5-1.2-2.4c-1-2-2.4-4.9-3.9-8
					c-1.5-3.1-2.9-6-3.8-8.1c-0.4-1-0.8-1.8-1.1-2.5C394.3,348.5,394.2,348.2,394.2,348.2z"/>
			</g>
		</g>
		<g>
			<g>
				<path class="st1" d="M372.3,373.6c0,0,0.3,0.4,0.6,1.1c0.4,0.8,1,1.8,1.6,3.1c1.3,2.6,3.2,6.2,5.1,10.2c2,4,3.8,7.6,5,10.3
					c0.6,1.3,1.1,2.3,1.5,3.1c0.3,0.7,0.5,1.2,0.5,1.2c0,0-0.3-0.4-0.6-1.1c-0.4-0.8-1-1.8-1.6-3.1c-1.3-2.6-3.2-6.2-5.1-10.2
					c-2-4-3.8-7.6-5-10.3c-0.6-1.3-1.1-2.3-1.5-3.1C372.4,374.1,372.2,373.6,372.3,373.6z"/>
			</g>
		</g>
		<g>
			<g>
				<path class="st1" d="M386.5,401.8c0,0,0.5,0,1.4,0c1,0,2.2,0.1,3.7,0.1c3.1,0.1,7.5,0.3,12.2,0.3c4.8,0,9.1-0.1,12.2-0.1
					c1.5,0,2.8-0.1,3.7-0.1c0.9,0,1.4,0,1.4,0c0,0-0.5,0.1-1.4,0.2c-0.9,0.1-2.1,0.2-3.7,0.2c-3.1,0.2-7.5,0.3-12.2,0.3
					c-4.8,0-9.1-0.2-12.2-0.4c-1.6-0.1-2.8-0.2-3.7-0.3C386.9,401.9,386.5,401.8,386.5,401.8z"/>
			</g>
		</g>
	</g>
	<g>
		<g>
			<g>
				
					<rect x="365.1" y="215.3" transform="matrix(0.9537 -0.3006 0.3006 0.9537 -53.9141 132.5934)" class="st2" width="77.7" height="52.4"/>
			</g>
			<g>
				<g>
					<path class="st1" d="M448.9,254.8c0,0-0.1-0.3-0.3-0.9c-0.2-0.6-0.5-1.5-0.9-2.6c-0.7-2.3-1.8-5.7-3.2-10
						c-2.8-8.7-6.7-21.1-11.6-36.3l0.3,0.1c-20.5,6.5-46.2,14.6-74.1,23.4l0,0l0.2-0.3c5.6,17.8,10.9,34.7,15.7,50l-0.3-0.2
						c21.8-6.8,40.3-12.6,53.4-16.7c6.5-2,11.7-3.6,15.3-4.8c1.8-0.5,3.1-1,4.1-1.3c0.5-0.1,0.8-0.2,1.1-0.3
						C448.7,254.8,448.9,254.8,448.9,254.8s-0.1,0-0.3,0.1c-0.2,0.1-0.6,0.2-1,0.3c-0.9,0.3-2.3,0.7-4,1.3
						c-3.5,1.1-8.7,2.8-15.2,4.9c-13.1,4.2-31.6,10-53.5,17l-0.2,0.1l-0.1-0.2c-4.8-15.2-10.1-32.2-15.8-50l-0.1-0.2l0.2-0.1l0,0
						c27.9-8.8,53.7-16.9,74.1-23.3l0.2-0.1l0.1,0.2c4.8,15.3,8.7,27.8,11.4,36.5c1.3,4.3,2.4,7.7,3.1,10c0.3,1.1,0.6,2,0.8,2.6
						C448.8,254.5,448.9,254.8,448.9,254.8z"/>
				</g>
			</g>
		</g>
		<g>
			<g>
				<path class="st1" d="M433.1,204.8c0,0,0,0.1-0.1,0.2c-0.1,0.2-0.2,0.4-0.3,0.6c-0.3,0.6-0.8,1.4-1.4,2.4c-1.2,2.2-2.9,5.2-5.1,9
					c-4.4,7.6-10.4,18.1-17.1,29.8l-0.1,0.2l-0.2-0.1c-0.7-0.3-1.5-0.6-2.3-0.9c-13.1-4.9-25-9.4-33.7-12.6c-4.3-1.6-7.7-3-10.2-3.9
					c-1.2-0.5-2.1-0.8-2.8-1.1c-0.3-0.1-0.5-0.2-0.7-0.3c-0.2-0.1-0.2-0.1-0.2-0.1c0,0,0.1,0,0.3,0.1c0.2,0.1,0.4,0.1,0.7,0.2
					c0.7,0.2,1.6,0.6,2.8,1c2.5,0.9,6,2.2,10.2,3.7c8.7,3.2,20.6,7.6,33.7,12.5c0.8,0.3,1.6,0.6,2.3,0.9l-0.3,0.1
					c6.7-11.7,12.8-22.1,17.2-29.7c2.2-3.7,4-6.8,5.2-8.9c0.6-1,1.1-1.8,1.4-2.4c0.2-0.3,0.3-0.5,0.4-0.6
					C433.1,204.9,433.1,204.8,433.1,204.8z"/>
			</g>
		</g>
	</g>
	<g>
		<g>
			<path class="st1" d="M148.1,90.1c-0.1,0-0.1-0.7-0.2-2c0-0.6-0.1-1.4-0.3-2.4c-0.1-0.9-0.3-2-0.6-3.2c-0.5-2.4-1.6-5.2-3.3-8.1
				c-1.7-3-4.2-6.1-7.6-8.7c-3.4-2.6-7.6-4.9-12.6-5.9c-4.9-0.9-10.5-0.9-15.8,1c-2.7,0.9-5.3,2.2-7.7,3.9c-1.2,0.8-2.3,1.8-3.5,2.8
				c-1,1.1-2.1,2.2-3,3.4c-3.8,4.8-6,11.1-6.3,17.6c-0.1,6.5,1.8,12.9,5.4,17.9c0.8,1.3,1.9,2.4,2.8,3.6c1.1,1,2.1,2.1,3.3,3
				c2.3,1.8,4.8,3.3,7.5,4.3c5.2,2.2,10.8,2.5,15.8,1.8c5-0.7,9.4-2.8,12.9-5.3c3.5-2.5,6.1-5.5,8-8.3c1.8-2.9,3-5.6,3.7-8
				c0.4-1.1,0.6-2.2,0.8-3.1c0.2-0.9,0.3-1.7,0.4-2.3C147.9,90.8,148,90.1,148.1,90.1c0.1,0,0.1,0.7,0,2c0,0.7,0,1.5-0.2,2.4
				c-0.1,0.9-0.3,2-0.6,3.2c-0.5,2.4-1.7,5.3-3.5,8.3c-1.8,3-4.5,6.2-8.1,8.8c-3.6,2.6-8.1,4.8-13.3,5.7c-5.2,0.8-11,0.5-16.6-1.7
				c-2.8-1-5.5-2.6-7.9-4.5c-1.3-0.9-2.4-2-3.5-3.1c-1-1.2-2.1-2.4-3-3.7c-3.8-5.3-5.8-12-5.7-18.9c0.2-6.9,2.6-13.5,6.6-18.6
				c1-1.3,2.1-2.4,3.2-3.6c1.2-1,2.4-2.1,3.7-3c2.5-1.8,5.3-3.2,8.1-4.1c5.6-2,11.5-1.9,16.6-0.9c5.2,1.1,9.6,3.5,13,6.3
				c3.5,2.8,6,6.1,7.6,9.2c1.7,3.1,2.7,6,3.1,8.5c0.3,1.2,0.4,2.3,0.5,3.2c0.1,0.9,0.1,1.7,0.1,2.4
				C148.2,89.4,148.2,90.1,148.1,90.1z"/>
		</g>
		<g>
			<path class="st1" d="M141.9,70.9c0.1,0.1-0.5,0.6-1.6,1.4c-0.6,0.4-1.2,0.9-2,1.4c-0.4,0.3-0.8,0.6-1.3,0.9
				c-0.5,0.3-1,0.5-1.5,0.8c-4.1,2.4-10.7,4.8-18.1,4.6c-0.9,0-1.8-0.1-2.7-0.1c-0.9-0.1-1.8-0.3-2.6-0.4c-0.4-0.1-0.9-0.1-1.3-0.2
				c-0.4-0.1-0.8-0.2-1.2-0.3c-0.8-0.2-1.6-0.4-2.4-0.7c-3-1.1-5.6-2.3-7.7-3.5c-4.1-2.5-6.1-4.8-6-4.9c0.2-0.2,2.4,1.7,6.6,3.9
				c2.1,1.1,4.6,2.2,7.6,3.1c0.7,0.2,1.5,0.4,2.3,0.6c0.4,0.1,0.8,0.2,1.2,0.3c0.4,0.1,0.8,0.1,1.2,0.2c0.8,0.1,1.7,0.2,2.5,0.4
				c0.9,0,1.7,0.1,2.6,0.1c7.1,0.2,13.4-1.9,17.6-3.9c0.5-0.2,1-0.5,1.5-0.7c0.5-0.2,0.9-0.5,1.3-0.7c0.8-0.4,1.5-0.8,2.1-1.2
				C141.2,71.1,141.9,70.8,141.9,70.9z"/>
		</g>
		<g>
			<path class="st1" d="M92.6,108.3c-0.1-0.1,0.5-0.6,1.6-1.4c0.6-0.4,1.2-0.9,2-1.4c0.4-0.3,0.8-0.6,1.3-0.9c0.5-0.3,1-0.5,1.5-0.8
				c4.1-2.4,10.7-4.8,18.1-4.6c0.9,0,1.8,0.1,2.7,0.1c0.9,0.1,1.8,0.3,2.6,0.4c0.4,0.1,0.9,0.1,1.3,0.2c0.4,0.1,0.8,0.2,1.2,0.3
				c0.8,0.2,1.6,0.4,2.4,0.7c3,1.1,5.6,2.3,7.7,3.5c4.1,2.5,6.1,4.8,6,4.9c-0.2,0.2-2.4-1.7-6.6-3.9c-2.1-1.1-4.6-2.2-7.6-3.1
				c-0.7-0.2-1.5-0.4-2.3-0.6c-0.4-0.1-0.8-0.2-1.2-0.3c-0.4-0.1-0.8-0.1-1.2-0.2c-0.8-0.1-1.7-0.2-2.5-0.4c-0.9,0-1.7-0.1-2.6-0.1
				c-7.1-0.2-13.4,1.9-17.6,3.9c-0.5,0.2-1,0.5-1.5,0.7c-0.5,0.2-0.9,0.5-1.3,0.7c-0.8,0.4-1.5,0.8-2.1,1.2
				C93.4,108.1,92.7,108.4,92.6,108.3z"/>
		</g>
		<g>
			<path class="st1" d="M148.1,90.8c0,0.5-13.8,0.5-30.8,0.1c-17-0.4-30.8-1.1-30.8-1.6c0-0.5,13.8-0.5,30.8-0.1
				C134.3,89.6,148.1,90.4,148.1,90.8z"/>
		</g>
		<g>
			<path class="st1" d="M115.8,120.2c-0.5,0-0.5-13.8-0.1-30.8c0.4-17,1.1-30.8,1.6-30.8c0.5,0,0.5,13.8,0.1,30.8
				C117,106.4,116.3,120.2,115.8,120.2z"/>
		</g>
		<g>
			<path class="st1" d="M115.8,120.1c-0.1,0.2-3.5-2.1-7.4-7.3c-1.9-2.6-4-6-5.5-10c-1.5-4-2.5-8.8-2.4-13.8c0.1-5,1.4-9.7,3.1-13.7
				c1.8-4,4-7.2,6-9.7c4.2-5,7.6-7.2,7.7-7.1c0.2,0.2-2.9,2.7-6.7,7.8c-1.9,2.5-3.9,5.7-5.5,9.6c-1.6,3.8-2.8,8.3-2.9,13.1
				c-0.1,4.8,0.8,9.3,2.2,13.2c1.4,3.9,3.3,7.2,5,9.8C113,117.3,116,119.9,115.8,120.1z"/>
		</g>
		<g>
			<path class="st1" d="M118,58.5c0.1-0.2,3.5,2.1,7.4,7.3c1.9,2.6,4,6,5.5,10c1.5,4,2.5,8.8,2.4,13.8c-0.1,5-1.4,9.7-3.1,13.7
				c-1.8,4-4,7.2-6,9.7c-4.2,5-7.6,7.2-7.7,7.1c-0.2-0.2,2.9-2.7,6.7-7.8c1.9-2.5,3.9-5.7,5.5-9.6c1.6-3.8,2.8-8.3,2.9-13.1
				c0.1-4.8-0.8-9.3-2.2-13.2c-1.4-3.9-3.3-7.2-5-9.8C120.9,61.3,117.9,58.7,118,58.5z"/>
		</g>
	</g>
	<g>
		<g>
			<g>
				<path class="st1" d="M310.2,91c0-0.1,0.8-0.2,1.5-1.3c0.4-0.5,0.7-1.3,0.6-2.3c0-0.5-0.2-1-0.4-1.5c-0.2-0.5-0.4-1.1-0.6-1.7
					c-1.7-4.8-4.2-11.7-7.2-20.2c-0.8-2.1-1.5-4.4-2.4-6.7c-0.4-1.2-0.8-2.4-1.3-3.6c-0.2-0.6-0.4-1.3-0.7-1.8
					c-0.3-0.5-0.8-0.9-1.3-1.2c-0.6-0.3-1.2-0.4-1.8-0.3c-0.6,0.1-1.3,0.4-1.9,0.6c-1.3,0.5-2.6,1-3.9,1.4c-2.7,1-5.4,2-8.2,3
					c-11.3,4.1-23.6,8.7-36.6,13.4c-1.5,0.5-2.3,2.3-1.9,3.8c0.6,1.6,1.1,3.2,1.7,4.8c1.1,3.2,2.2,6.3,3.3,9.4
					c2.1,6.2,4.2,12.1,6.2,17.8c0.2,0.7,0.5,1.4,0.7,2.1c0.2,0.7,0.6,1.2,1.1,1.7c0.5,0.4,1.2,0.7,1.8,0.7c0.7,0,1.3-0.3,2-0.5
					c2.7-1,5.3-1.9,7.8-2.8c5-1.8,9.7-3.5,13.9-5.1c8.5-3.1,15.4-5.6,20.2-7.3c2.4-0.8,4.2-1.5,5.5-1.9c0.6-0.2,1.1-0.4,1.4-0.5
					C310.1,91,310.2,91,310.2,91c0,0-0.2,0.1-0.5,0.2c-0.3,0.1-0.8,0.3-1.4,0.6c-1.3,0.5-3.1,1.2-5.5,2.1
					c-4.8,1.8-11.7,4.3-20.1,7.5c-4.3,1.6-8.9,3.3-13.9,5.1c-2.5,0.9-5.1,1.9-7.8,2.9l-1,0.4c-0.4,0.1-0.8,0.2-1.2,0.2
					c-0.8,0-1.6-0.3-2.2-0.8c-0.6-0.5-1.1-1.2-1.3-1.9c-0.2-0.7-0.5-1.4-0.7-2.1c-2-5.7-4.1-11.6-6.2-17.7c-1.1-3.1-2.2-6.2-3.3-9.4
					c-0.6-1.6-1.1-3.2-1.7-4.8c-0.5-1.8,0.5-3.9,2.3-4.6c13-4.7,25.4-9.3,36.6-13.4c2.8-1,5.6-2,8.2-3c1.3-0.5,2.6-1,3.9-1.4
					c0.7-0.2,1.2-0.5,2-0.7c0.7-0.1,1.5,0,2.1,0.3c0.6,0.3,1.2,0.8,1.6,1.4c0.4,0.6,0.5,1.3,0.7,1.9c0.4,1.2,0.8,2.4,1.2,3.6
					c0.8,2.3,1.6,4.6,2.3,6.7c2.9,8.5,5.3,15.5,7,20.3c0.2,0.6,0.4,1.2,0.6,1.7c0.2,0.5,0.4,1,0.4,1.5c0.1,1-0.3,1.8-0.7,2.4
					c-0.4,0.5-0.9,0.8-1.2,1C310.4,91,310.2,91,310.2,91z"/>
			</g>
		</g>
		<g>
			<polygon class="st1" points="278.9,75.7 287.2,77.3 281.8,83.9 276.4,90.5 273.5,82.3 270.7,74 			"/>
		</g>
	</g>
</g>
<g id="Background_Simple" class="st3">
	<path class="st4" d="M430.4,103.9c28.5,56.7,19.5,128.3-16.1,180.9c-35.6,52.6-94.8,86.6-157,99c-44.4,8.8-92.2,7-132.9-13.1
		c-40.6-20.1-72.5-60.6-75-105.8c-0.9-17.1,2.7-35.2,14.1-48c18.2-20.4,49.3-21.1,76.6-20.3c27.3,0.8,58.4,0.2,76.7-20.1
		c14.1-15.6,16.1-38.2,23.5-57.9c12.6-33.4,43-59.5,77.9-66.9c4.9-1,9.8-1.7,14.7-2c38.4-2.4,74.9,17.4,95,50.2L430.4,103.9z"/>
</g>
<g id="Plant">
	<g>
		<g>
			<path class="st5" d="M430.8,151c-2.7-1.7-6.2-2-9.3-1.2c-3.1,0.8-5.9,2.6-8.4,4.7c-4.7,4.1-7.9,10.5-9.9,16.5
				c6.7,1.7,14-1.7,17.5-3.7C426.4,164,434.6,154.9,430.8,151"/>
		</g>
		<g>
			<path class="st5" d="M391.3,171.7c3.4-1.3,5.7-4.7,6.2-8.2c0.5-3.6-0.8-7.3-3.1-10.1c-1-1.3-2.5-2.5-4.1-2.5
				c-1.6,0-3,1.1-3.7,2.4c-0.7,1.4-0.9,3-0.8,4.5C386,163.2,387.2,168.3,391.3,171.7"/>
		</g>
		<g class="st6">
			<path class="st2" d="M391.3,171.7c3.4-1.3,5.7-4.7,6.2-8.2c0.5-3.6-0.8-7.3-3.1-10.1c-1-1.3-2.5-2.5-4.1-2.5
				c-1.6,0-3,1.1-3.7,2.4c-0.7,1.4-0.9,3-0.8,4.5C386,163.2,387.2,168.3,391.3,171.7"/>
		</g>
		<g>
			<g>
				<path class="st7" d="M379.4,188c0,0,0.4-0.3,0.9-0.9c0.6-0.6,1.5-1.5,2.5-2.5c2.1-2.1,5-5,7.1-9.1c2.1-4.1,2.7-8.3,2.5-11.3
					c-0.1-1.5-0.4-2.7-0.6-3.5c-0.1-0.4-0.3-0.7-0.3-0.9c-0.1-0.2-0.1-0.3-0.1-0.3c-0.1,0,0.7,1.7,0.8,4.7c0.2,2.9-0.6,7-2.6,11
					c-2,4-4.9,7-6.9,9.1c-1,1.1-1.8,1.9-2.4,2.6C379.6,187.6,379.3,187.9,379.4,188z"/>
			</g>
		</g>
		<g>
			<g>
				<path class="st7" d="M423.9,157.4c0,0-0.2,0.1-0.5,0.3c-0.4,0.2-0.8,0.5-1.4,0.8c-1.2,0.7-2.9,1.8-5,3.1
					c-4.2,2.7-9.9,6.4-16.2,10.7c-6.3,4.3-11.8,8.3-15.8,11.3c-2,1.5-3.6,2.7-4.7,3.6c-0.5,0.4-0.9,0.7-1.3,1
					c-0.3,0.2-0.4,0.4-0.4,0.4c0,0,0.2-0.1,0.5-0.3c0.3-0.2,0.8-0.5,1.3-0.9c1.2-0.8,2.8-2,4.8-3.4c4-2.9,9.6-6.9,15.9-11.2
					c6.3-4.3,12-8.1,16.1-10.8c2-1.3,3.7-2.4,4.9-3.2c0.5-0.4,1-0.7,1.3-0.9C423.7,157.5,423.9,157.4,423.9,157.4z"/>
			</g>
		</g>
		<g>
			<path class="st5" d="M393.3,181.3c6.9-3.2,15.3-2.9,21.9,0.9c1.7,1,3.4,2.5,3.1,4.5c-0.3,1.9-2.4,3-4.3,3.4
				c-7.9,1.8-16.7-1.7-21.1-8.4"/>
		</g>
		<g>
			<g>
				<path class="st7" d="M409.9,184.8c0,0-0.3-0.3-1-0.6c-0.3-0.2-0.7-0.4-1.3-0.7c-0.5-0.2-1.1-0.5-1.7-0.8
					c-0.7-0.2-1.4-0.5-2.2-0.7c-0.8-0.3-1.6-0.4-2.6-0.6c-1.8-0.3-3.9-0.5-6-0.4c-2.1,0.1-4.1,0.5-5.9,1.1c-0.9,0.3-1.7,0.6-2.5,0.9
					c-0.8,0.3-1.4,0.7-2,1c-0.6,0.3-1.1,0.7-1.6,1c-0.5,0.3-0.8,0.6-1.1,0.8c-0.6,0.5-0.9,0.8-0.9,0.8c0.1,0.1,1.4-1,3.8-2.3
					c0.6-0.3,1.3-0.7,2-1c0.7-0.3,1.6-0.6,2.4-0.9c1.7-0.5,3.7-0.9,5.8-1c2.1-0.1,4.1,0,5.9,0.3c0.9,0.2,1.7,0.3,2.5,0.6
					c0.8,0.2,1.5,0.5,2.2,0.7C408.3,184,409.8,184.9,409.9,184.8z"/>
			</g>
		</g>
	</g>
	<g>
		<g>
			<g>
				<path class="st5" d="M129.9,296.3c17.4-14.4,19.6-38.6,17.1-60c-0.4-3.6-0.3-7.4-2.3-10.4c-2-3-6.1-4.8-9.2-3.1
					c-2.6,1.5-3.5,4.7-4.7,7.3c-1.7,3.6-4.4,6.6-7.8,8.7c-2.2,1.4-4.9,2.3-7.3,1.3c-3.2-1.5-3.9-5.7-4.2-9.3
					c-0.5-6.6-1-13.3-1.5-19.9c-0.3-3.6-0.6-7.2-1.9-10.5c-1.4-3.3-4.1-6.2-7.6-6.9c-3.5-0.7-7.5,1.6-7.9,5.2
					c-0.2,1.5,0.2,3,0.3,4.4c0,1.5-0.5,3.2-1.9,3.7c-1.4,0.5-2.9-0.4-4-1.3c-4-3.3-6.8-7.7-9.5-12.2c-2.7-4.4-5.4-9-9-12.6
					c-3.7-3.7-8.5-6.4-13.6-6.3c-5.1,0.1-10.3,3.7-11.2,8.8c-0.9,5.1,2.5,10,6,13.8c5.2,5.6,11.3,10.5,17.8,14.4
					c1.2,0.7,2.5,1.5,3,2.8c1,2.3-1.1,4.9-3.4,5.8c-2.6,1.1-5.5,1.1-8.2,1.6c-2.8,0.6-5.7,2-6.5,4.7c-1.2,3.8,2.2,7.3,5.4,9.6
					c6.4,4.5,13.6,7.9,21.1,10c2.7,0.7,5.5,1.4,7.8,3c2.3,1.7,3.8,4.8,2.7,7.4c-1.1,2.6-4.3,3.7-7.1,3.4c-2.8-0.3-5.4-1.6-8.1-2.4
					c-5-1.5-11.3-0.6-14.1,3.9c-1.8,2.9-1.7,6.8-0.4,10.1c1.3,3.2,3.7,5.9,6.1,8.4c8.6,8.6,19.2,15.2,30.9,18.2
					C108.3,301.1,118.9,301.3,129.9,296.3"/>
			</g>
		</g>
		<g class="st8">
			<g>
				<path class="st2" d="M129.9,296.3c17.4-14.4,19.6-38.6,17.1-60c-0.4-3.6-0.3-7.4-2.3-10.4c-2-3-6.1-4.8-9.2-3.1
					c-2.6,1.5-3.5,4.7-4.7,7.3c-1.7,3.6-4.4,6.6-7.8,8.7c-2.2,1.4-4.9,2.3-7.3,1.3c-3.2-1.5-3.9-5.7-4.2-9.3
					c-0.5-6.6-1-13.3-1.5-19.9c-0.3-3.6-0.6-7.2-1.9-10.5c-1.4-3.3-4.1-6.2-7.6-6.9c-3.5-0.7-7.5,1.6-7.9,5.2
					c-0.2,1.5,0.2,3,0.3,4.4c0,1.5-0.5,3.2-1.9,3.7c-1.4,0.5-2.9-0.4-4-1.3c-4-3.3-6.8-7.7-9.5-12.2c-2.7-4.4-5.4-9-9-12.6
					c-3.7-3.7-8.5-6.4-13.6-6.3c-5.1,0.1-10.3,3.7-11.2,8.8c-0.9,5.1,2.5,10,6,13.8c5.2,5.6,11.3,10.5,17.8,14.4
					c1.2,0.7,2.5,1.5,3,2.8c1,2.3-1.1,4.9-3.4,5.8c-2.6,1.1-5.5,1.1-8.2,1.6c-2.8,0.6-5.7,2-6.5,4.7c-1.2,3.8,2.2,7.3,5.4,9.6
					c6.4,4.5,13.6,7.9,21.1,10c2.7,0.7,5.5,1.4,7.8,3c2.3,1.7,3.8,4.8,2.7,7.4c-1.1,2.6-4.3,3.7-7.1,3.4c-2.8-0.3-5.4-1.6-8.1-2.4
					c-5-1.5-11.3-0.6-14.1,3.9c-1.8,2.9-1.7,6.8-0.4,10.1c1.3,3.2,3.7,5.9,6.1,8.4c8.6,8.6,19.2,15.2,30.9,18.2
					C108.3,301.1,118.9,301.3,129.9,296.3"/>
			</g>
		</g>
		<g>
			<g>
				<g>
					<path class="st7" d="M131.5,312.2c-1.5-8.4-4.1-18.3-8.2-28.9c-4-10.6-9.4-21.8-15.5-33.3c-1.5-2.9-3-5.7-4.5-8.5
						c-1.5-2.8-3-5.6-4.6-8.2c-3.2-5.3-6.7-10.1-10.1-14.5c-3.4-4.5-6.9-8.6-10.1-12.4c-3.2-3.8-6.3-7.3-9.3-10.4
						c-5.9-6.2-11.2-10.6-15-13.5c-1.9-1.4-3.4-2.5-4.4-3.2c-0.5-0.3-0.9-0.6-1.2-0.8c-0.3-0.2-0.4-0.3-0.4-0.3c0,0,0.1,0.1,0.4,0.3
						c0.3,0.2,0.7,0.5,1.1,0.9c1,0.7,2.5,1.9,4.3,3.3c3.7,2.9,9,7.4,14.8,13.6c2.9,3.1,6,6.6,9.2,10.4c3.2,3.8,6.6,8,10,12.4
						c3.4,4.5,6.9,9.3,10,14.5c1.6,2.6,3.1,5.4,4.5,8.2c1.5,2.8,3,5.6,4.5,8.5c6,11.5,11.4,22.7,15.5,33.3
						c4.1,10.5,6.8,20.4,8.3,28.8"/>
				</g>
			</g>
		</g>
		<g>
			<g>
				<g>
					<path class="st7" d="M98.5,233.2c0,0,0.1-0.5,0.2-1.5c0.1-1,0.2-2.5,0.3-4.2c0.2-3.6,0.3-8.6,0.5-14c0.1-5.5,0.3-10.4,0.6-14
						c0.1-1.8,0.2-3.2,0.3-4.2c0.1-1,0.1-1.6,0.1-1.6c0,0-0.2,0.5-0.3,1.5c-0.2,1-0.4,2.4-0.6,4.2c-0.4,3.6-0.7,8.5-0.8,14
						c-0.1,5.4-0.2,10.3-0.3,14c0,1.7-0.1,3.1-0.1,4.3C98.5,232.7,98.5,233.2,98.5,233.2z"/>
				</g>
			</g>
		</g>
		<g>
			<g>
				<g>
					<path class="st7" d="M52,228.4c0,0,0.7,0.1,1.8,0.1c1.2,0,2.9,0,5,0.1c4.2,0.1,10.1,0.5,16.5,1.2c6.4,0.7,12.2,1.6,16.4,2.3
						c2.1,0.4,3.8,0.7,4.9,0.9c1.2,0.2,1.8,0.3,1.8,0.3c0,0-0.6-0.2-1.8-0.5c-1.1-0.3-2.8-0.7-4.9-1.1c-4.2-0.9-10-1.8-16.4-2.5
						c-6.4-0.7-12.3-1-16.6-1c-2.1,0-3.8,0.1-5,0.1C52.7,228.3,52,228.3,52,228.4z"/>
				</g>
			</g>
		</g>
		<g>
			<g>
				<g>
					<path class="st7" d="M122.6,282.5c0,0,0.1-0.2,0.3-0.6c0.2-0.5,0.4-1,0.6-1.7c0.6-1.5,1.3-3.7,2.2-6.4c1.8-5.4,4-13,6.4-21.4
						c2.3-8.4,4.5-16,6.2-21.4c0.8-2.7,1.5-4.8,2-6.5c0.2-0.7,0.4-1.3,0.5-1.8c0.1-0.4,0.2-0.6,0.1-0.6c0,0-0.1,0.2-0.3,0.6
						c-0.2,0.5-0.4,1-0.6,1.7c-0.6,1.5-1.3,3.7-2.2,6.4c-1.8,5.4-4,13-6.4,21.4c-2.3,8.4-4.5,16-6.2,21.4c-0.8,2.7-1.5,4.8-2,6.5
						c-0.2,0.7-0.4,1.3-0.5,1.8C122.7,282.3,122.6,282.5,122.6,282.5z"/>
				</g>
			</g>
		</g>
		<g>
			<g>
				<g>
					<path class="st7" d="M60.2,267.8c0,0,0.2,0.1,0.6,0.2c0.5,0.1,1.1,0.3,1.8,0.4c1.7,0.4,3.9,0.9,6.7,1.6
						c5.6,1.3,13.4,3.3,22,5.4c8.6,2.2,16.4,4,22.1,5.2c2.8,0.6,5.1,1.1,6.7,1.4c0.7,0.1,1.3,0.2,1.8,0.3c0.4,0.1,0.6,0.1,0.7,0.1
						c0,0-0.2-0.1-0.6-0.2c-0.5-0.1-1.1-0.3-1.8-0.4c-1.7-0.4-3.9-0.9-6.7-1.6c-5.6-1.3-13.4-3.3-22-5.4c-8.6-2.2-16.4-4-22.1-5.2
						c-2.8-0.6-5.1-1.1-6.7-1.4c-0.7-0.1-1.3-0.2-1.8-0.3C60.4,267.8,60.2,267.8,60.2,267.8z"/>
				</g>
			</g>
		</g>
	</g>
</g>
<g id="Newspaper">
	<path class="st1" d="M149.5,108.8c0,0,4.1,105.3,4.9,171.3c0.7,63.1-20.3,133.2-17.3,155.2l253.6,13c0,0-11.8-163-7.3-214.5
		c4.3-49.1,4.3-130.5,4.3-130.5L149.5,108.8z"/>
	<path class="st0" d="M139.5,105.4c0,0,4.2,105.3,5,171.3c0.8,63.1-10.5,139.5-7.4,161.6l245.6-8.5c0,0-9-147.8-4.4-199.3
		c4.4-49.1,4.3-129.6,4.3-129.6L139.5,105.4z"/>
	<g>
		<g>
			<path class="st9" d="M136.3,105.4c0,0-6.2,116-5.4,181.9c0.8,63.1,3,128.9,6.1,150.9l238.9,2.1c0,0-9.2-147.8-4.5-199.3
				C376,192,376,104.7,376,104.7L136.3,105.4z"/>
			<path class="st7" d="M376.5,440.9l-239.9-2.1l-0.1-0.4c-3.5-24.1-5.5-96.4-6.2-151c-0.8-65.2,5.3-180.8,5.4-182l0-0.5l240.7-0.8
				v0.5c0,0.9,0,88-4.5,136.5c-4.7,50.9,4.4,197.7,4.5,199.2L376.5,440.9z M137.5,437.8l238,2.1c-0.6-9.8-9-149.4-4.4-198.8
				c4.3-46.6,4.5-128.7,4.5-135.9l-238.7,0.8c-0.4,8.2-6.1,118.4-5.3,181.4C132.1,341.6,134.1,413.3,137.5,437.8z"/>
		</g>
		<g>
			<g>
				<g>
					<g>
						<rect x="152.4" y="174.2" class="st5" width="98.3" height="95.1"/>
					</g>
				</g>
			</g>
			<g class="st10">
				<g>
					<g>
						<polygon points="160,261.2 187.2,212.3 209.5,243.5 223,226.9 243.1,261.2 						"/>
					</g>
				</g>
			</g>
			<g class="st10">
				<g>
					<g>
						<path d="M219,202.7c0,3.9-3.2,7.1-7.1,7.1c-3.9,0-7.1-3.2-7.1-7.1c0-3.9,3.2-7.1,7.1-7.1C215.8,195.7,219,198.8,219,202.7z"/>
					</g>
				</g>
			</g>
			<g>
				<g>
					<g>
						<g class="st10">
							<path d="M243.1,261.5c0,0,0-0.1,0-0.4c0-0.3,0-0.6,0-1.1c0-1,0-2.4,0-4.3c0-3.8-0.1-9.2-0.1-16.2
								c-0.1-13.9-0.1-33.7-0.2-57.4l0.4,0.4c-24.1,0-52.6,0-83.1,0.1c-0.1,0.1,0.9-0.9,0.5-0.5v0v0v0.1v0.2v0.3v0.7v1.4v2.7
								c0,1.8,0,3.6,0,5.4c0,3.6,0,7.1,0,10.6c0,7,0,13.8,0,20.5c0,13.3,0,25.9,0,37.5l-0.4-0.4c24.8,0.1,45.5,0.2,60.1,0.2
								c7.3,0,13,0.1,16.9,0.1c1.9,0,3.4,0,4.5,0c0.5,0,0.9,0,1.2,0C243,261.5,243.1,261.5,243.1,261.5c0,0-0.1,0-0.4,0
								c-0.3,0-0.7,0-1.1,0c-1,0-2.5,0-4.4,0c-3.9,0-9.6,0.1-16.9,0.1c-14.6,0.1-35.4,0.1-60.3,0.2l-0.4,0v-0.4
								c0-11.6,0-24.2,0-37.5c0-6.7,0-13.5,0-20.5c0-3.5,0-7,0-10.6c0-1.8,0-3.6,0-5.4v-2.7l0-1.4v-0.7v-0.3v-0.2v-0.1v0v0
								c-0.4,0.4,0.6-0.6,0.5-0.5c30.5,0,59,0,83.1,0.1l0.4,0l0,0.4c-0.1,23.9-0.2,43.7-0.2,57.7c0,6.9-0.1,12.3-0.1,16.1
								c0,1.8,0,3.2,0,4.2c0,0.4,0,0.8,0,1.1C243.1,261.4,243.1,261.5,243.1,261.5z"/>
						</g>
					</g>
				</g>
			</g>
		</g>
		<g>
			<g>
				<g>
					<g>
						<rect x="276.2" y="356.4" class="st5" width="67.6" height="65.4"/>
					</g>
				</g>
			</g>
			<g class="st6">
				<g>
					<g>
						<polygon points="281.4,416.2 300.1,382.6 315.4,404.1 324.7,392.6 338.6,416.2 						"/>
					</g>
				</g>
			</g>
			<g class="st6">
				<g>
					<g>
						<path d="M321.9,376c0,2.7-2.2,4.9-4.9,4.9c-2.7,0-4.9-2.2-4.9-4.9c0-2.7,2.2-4.9,4.9-4.9C319.8,371.1,321.9,373.3,321.9,376z"
							/>
					</g>
				</g>
			</g>
			<g class="st6">
				<g>
					<g>
						<g>
							<path d="M338.6,416.4c0,0,0-0.1,0-0.3c0-0.2,0-0.4,0-0.8c0-0.7,0-1.7,0-2.9c0-2.6,0-6.3-0.1-11.1c0-9.6-0.1-23.2-0.1-39.5
								l0.3,0.3c-16.5,0-36.2,0-57.1,0c-0.1,0.1,0.6-0.6,0.3-0.3v0v0v0.1v0.1v0.2v0.5v0.9v1.9c0,1.2,0,2.5,0,3.7c0,2.5,0,4.9,0,7.3
								c0,4.8,0,9.5,0,14.1c0,9.2,0,17.8,0,25.8l-0.3-0.3c17,0.1,31.3,0.1,41.3,0.1c5,0,8.9,0.1,11.6,0.1c1.3,0,2.4,0,3.1,0
								c0.3,0,0.6,0,0.8,0C338.5,416.4,338.5,416.4,338.6,416.4c0,0-0.1,0-0.2,0c-0.2,0-0.4,0-0.8,0c-0.7,0-1.7,0-3,0
								c-2.7,0-6.6,0-11.6,0.1c-10.1,0-24.4,0.1-41.5,0.1l-0.3,0v-0.3c0-8,0-16.6,0-25.8c0-4.6,0-9.3,0-14.1c0-2.4,0-4.8,0-7.3
								c0-1.2,0-2.5,0-3.7v-1.9l0-0.9v-0.5v-0.2v-0.1v-0.1v0v0c-0.3,0.3,0.4-0.4,0.3-0.3c21,0,40.6,0,57.1,0l0.3,0l0,0.3
								c-0.1,16.4-0.1,30.1-0.1,39.7c0,4.7-0.1,8.5-0.1,11c0,1.2,0,2.2,0,2.9c0,0.3,0,0.5,0,0.7
								C338.6,416.3,338.6,416.4,338.6,416.4z"/>
						</g>
					</g>
				</g>
			</g>
		</g>
		<g>
			<path class="st7" d="M194.8,131.9v15.8h-1.4l-10.2-12.8v12.8h-1.7v-15.8h1.4l10.2,12.8v-12.8H194.8z"/>
			<path class="st7" d="M211.2,146.3v1.4H200v-15.8h10.8v1.4h-9.2v5.6h8.2v1.4h-8.2v5.9H211.2z"/>
			<path class="st7" d="M236.5,131.9l-5.3,15.8h-1.8l-4.6-13.5l-4.6,13.5h-1.7l-5.3-15.8h1.7l4.6,13.6l4.7-13.6h1.6l4.6,13.7
				l4.6-13.7H236.5z"/>
			<path class="st7" d="M238.1,145.8l0.7-1.3c1.1,1.1,3.1,1.9,5.2,1.9c3,0,4.2-1.2,4.2-2.8c0-4.3-9.7-1.7-9.7-7.5
				c0-2.3,1.8-4.3,5.8-4.3c1.8,0,3.6,0.5,4.9,1.4l-0.6,1.3c-1.4-0.9-2.9-1.3-4.3-1.3c-2.9,0-4.2,1.3-4.2,2.9c0,4.3,9.7,1.7,9.7,7.5
				c0,2.3-1.9,4.3-5.9,4.3C241.6,147.9,239.3,147,238.1,145.8z"/>
			<path class="st7" d="M265.8,137.3c0,3.4-2.4,5.4-6.5,5.4h-4.2v5h-1.7v-15.8h5.9C263.4,131.9,265.8,134,265.8,137.3z M264.2,137.3
				c0-2.5-1.7-4-4.8-4h-4.2v7.9h4.2C262.5,141.3,264.2,139.8,264.2,137.3z"/>
			<path class="st7" d="M278.6,143.5h-8.8l-1.9,4.2h-1.7l7.2-15.8h1.6l7.2,15.8h-1.8L278.6,143.5z M278,142.2l-3.8-8.5l-3.8,8.5H278
				z"/>
			<path class="st7" d="M297.2,137.3c0,3.4-2.4,5.4-6.5,5.4h-4.2v5h-1.7v-15.8h5.9C294.8,131.9,297.2,134,297.2,137.3z M295.5,137.3
				c0-2.5-1.7-4-4.8-4h-4.2v7.9h4.2C293.9,141.3,295.5,139.8,295.5,137.3z"/>
			<path class="st7" d="M312,146.3v1.4h-11.2v-15.8h10.8v1.4h-9.2v5.6h8.2v1.4h-8.2v5.9H312z"/>
			<path class="st7" d="M326.7,147.7l-3.6-5.1c-0.4,0-0.8,0.1-1.3,0.1h-4.2v5h-1.7v-15.8h5.9c4,0,6.5,2,6.5,5.4c0,2.5-1.3,4.2-3.6,5
				l3.9,5.4H326.7z M326.6,137.3c0-2.5-1.7-4-4.8-4h-4.2v7.9h4.2C325,141.3,326.6,139.8,326.6,137.3z"/>
		</g>
		<g>
			<g>
				<path class="st7" d="M361.5,155.3c0,0-0.2,0-0.5,0c-0.4,0-0.9,0-1.6,0c-1.4,0-3.5,0.1-6.2,0.1c-5.4,0.1-13.1,0.2-22.7,0.4
					c-19.2,0.3-45.6,0.6-74.9,1.1c-29.2,0.4-55.7,0.7-74.9,0.9c-9.6,0.1-17.3,0.2-22.7,0.2c-2.7,0-4.7,0-6.2,0c-0.7,0-1.2,0-1.6,0
					c-0.4,0-0.5,0-0.5,0s0.2,0,0.5,0c0.4,0,0.9,0,1.6,0c1.4,0,3.5-0.1,6.2-0.1c5.4-0.1,13.1-0.2,22.7-0.4
					c19.2-0.3,45.7-0.6,74.9-1.1c29.2-0.4,55.7-0.7,74.9-0.9c9.6-0.1,17.3-0.2,22.7-0.2c2.7,0,4.7,0,6.2,0c0.7,0,1.2,0,1.6,0
					C361.4,155.3,361.5,155.3,361.5,155.3z"/>
			</g>
		</g>
		<g>
			<g>
				<path class="st7" d="M356.7,120.9c0,0-0.2,0-0.5,0c-0.4,0-0.9,0-1.6,0c-1.4,0-3.5,0.1-6.2,0.1c-5.4,0.1-13.1,0.2-22.7,0.4
					c-19.2,0.3-45.6,0.6-74.9,1.1c-29.2,0.4-55.7,0.7-74.9,0.9c-9.6,0.1-17.3,0.2-22.7,0.2c-2.7,0-4.7,0-6.2,0c-0.7,0-1.2,0-1.6,0
					c-0.4,0-0.5,0-0.5,0s0.2,0,0.5,0c0.4,0,0.9,0,1.6,0c1.4,0,3.5-0.1,6.2-0.1c5.4-0.1,13.1-0.2,22.7-0.4
					c19.2-0.3,45.7-0.6,74.9-1.1c29.2-0.4,55.7-0.7,74.9-0.9c9.6-0.1,17.3-0.2,22.7-0.2c2.7,0,4.7,0,6.2,0c0.7,0,1.2,0,1.6,0
					C356.5,120.9,356.7,120.9,356.7,120.9z"/>
			</g>
		</g>
		<g>
			<g>
				<path class="st7" d="M352.1,182.9c0,0.1-18.2,0.3-40.7,0.3c-22.5,0-40.7-0.1-40.7-0.3s18.2-0.3,40.7-0.3
					C333.8,182.6,352.1,182.7,352.1,182.9z"/>
			</g>
		</g>
		<g>
			<g>
				<path class="st7" d="M352.1,195.9c0,0.1-18.2,0.3-40.7,0.3c-22.5,0-40.7-0.1-40.7-0.3c0-0.1,18.2-0.3,40.7-0.3
					C333.8,195.6,352.1,195.8,352.1,195.9z"/>
			</g>
		</g>
		<g>
			<g>
				<path class="st7" d="M352.1,208.9c0,0.1-18.2,0.3-40.7,0.3c-22.5,0-40.7-0.1-40.7-0.3c0-0.1,18.2-0.3,40.7-0.3
					C333.8,208.7,352.1,208.8,352.1,208.9z"/>
			</g>
		</g>
		<g>
			<g>
				<path class="st7" d="M352.1,222c0,0.1-18.2,0.3-40.7,0.3c-22.5,0-40.7-0.1-40.7-0.3c0-0.1,18.2-0.3,40.7-0.3
					C333.8,221.7,352.1,221.8,352.1,222z"/>
			</g>
		</g>
		<g>
			<g>
				<path class="st7" d="M352.1,235c0,0.1-18.2,0.3-40.7,0.3c-22.5,0-40.7-0.1-40.7-0.3s18.2-0.3,40.7-0.3
					C333.8,234.8,352.1,234.9,352.1,235z"/>
			</g>
		</g>
		<g>
			<g>
				<path class="st7" d="M245.5,345.7c0,0.1-18.2,0.3-40.7,0.3c-22.5,0-40.7-0.1-40.7-0.3c0-0.1,18.2-0.3,40.7-0.3
					C227.3,345.4,245.5,345.6,245.5,345.7z"/>
			</g>
		</g>
		<g>
			<g>
				<path class="st7" d="M245.5,361.5c0,0.1-18.2,0.3-40.7,0.3c-22.5,0-40.7-0.1-40.7-0.3s18.2-0.3,40.7-0.3
					C227.3,361.2,245.5,361.4,245.5,361.5z"/>
			</g>
		</g>
		<g>
			<g>
				<path class="st7" d="M245.5,377.3c0,0.1-18.2,0.3-40.7,0.3c-22.5,0-40.7-0.1-40.7-0.3s18.2-0.3,40.7-0.3
					C227.3,377,245.5,377.1,245.5,377.3z"/>
			</g>
		</g>
		<g>
			<g>
				<path class="st7" d="M245.5,393.1c0,0.1-18.2,0.3-40.7,0.3c-22.5,0-40.7-0.1-40.7-0.3s18.2-0.3,40.7-0.3
					C227.3,392.8,245.5,392.9,245.5,393.1z"/>
			</g>
		</g>
		<g>
			<g>
				<path class="st7" d="M212.4,410.1c0,0.1-10.8,0.3-24.2,0.3c-13.3,0-24.2-0.1-24.2-0.3c0-0.1,10.8-0.3,24.2-0.3
					C201.6,409.8,212.4,409.9,212.4,410.1z"/>
			</g>
		</g>
		<g>
			<g>
				<path class="st7" d="M314.4,248.1c0,0-0.6,0.1-1.7,0.1c-1.2,0-2.8,0-4.7,0.1c-4,0-9.4,0.1-15.5,0.1c-6,0-11.5,0-15.5-0.1
					c-1.9,0-3.5-0.1-4.7-0.1c-1.1,0-1.7-0.1-1.7-0.1c0,0,0.6-0.1,1.7-0.1c1.2,0,2.8,0,4.7-0.1c4,0,9.4-0.1,15.5-0.1
					c6,0,11.5,0,15.5,0.1c1.9,0,3.5,0.1,4.7,0.1C313.8,248,314.4,248,314.4,248.1z"/>
			</g>
		</g>
		<g>
			<g>
				<path class="st7" d="M356,329.9c0,0.1-43.6,0.3-97.5,0.3c-53.8,0-97.5-0.1-97.5-0.3c0-0.1,43.6-0.3,97.5-0.3
					C312.3,329.7,356,329.8,356,329.9z"/>
			</g>
		</g>
		<g>
			<g>
				<path class="st7" d="M356,312.7c0,0.1-43.6,0.3-97.5,0.3c-53.8,0-97.5-0.1-97.5-0.3s43.6-0.3,97.5-0.3
					C312.3,312.5,356,312.6,356,312.7z"/>
			</g>
		</g>
		<g>
			<g>
				<path class="st7" d="M356,298.2c0,0.1-43.6,0.3-97.5,0.3c-53.8,0-97.5-0.1-97.5-0.3s43.6-0.3,97.5-0.3
					C312.3,297.9,356,298,356,298.2z"/>
			</g>
		</g>
		<g>
			<g>
				<path class="st5" d="M252.1,286.8c0,0.1-21.2,0.3-47.3,0.3c-26.1,0-47.3-0.1-47.3-0.3s21.2-0.3,47.3-0.3
					C230.9,286.6,252.1,286.7,252.1,286.8z"/>
			</g>
		</g>
	</g>
</g>
<g id="Character">
	<g>
		<g>
			<g>
				<path class="st7" d="M227.7,288.3c8.2-2,13.3-12.2,10-20c-1.8-4.2-5.6-7.9-5.4-12.5c0.2-3.1,2.2-5.9,2.7-8.9
					c0.9-5.8-3.7-10.8-5.9-16.2c-2.2-5.6-1.7-11.9-1.7-17.9c0-6-0.6-12.5-4.5-17.2l-4.9,70.3L227.7,288.3z"/>
			</g>
			<g>
				<path class="st7" d="M172.9,180.6c-7.1,4.4-12.1,11.7-15,19.5c-2.9,7.8-4.1,16.2-4.9,24.5c-2.3,22-3.1,44.1-2.3,66.2
					c27,3.4,54.2,6.8,81.3,5c-4.7-31-7.7-62-3.9-93.1"/>
			</g>
			<g>
				<g>
					<path class="st7" d="M233.4,285.2c0,0,0.3,0.1,1,0.1c0.6,0,1.6-0.2,2.6-0.9c1-0.7,2-1.9,2.4-3.5c0.4-1.7,0.1-3.7-0.7-5.7
						c-0.8-2-2.1-4-3.3-6.3c-0.6-1.2-1.1-2.4-1.4-3.8c-0.2-1.4-0.3-2.8-0.1-4.3c0.4-2.9,1.6-5.8,2.8-8.7c1.2-2.9,2.4-6,2.4-9.3
						c0.1-3.3-1.3-6.4-2.9-9c-1.6-2.7-3.5-5.1-5-7.6c-3.1-5-4.3-10.3-4.6-14.6c-0.3-4.4,0.3-8,1-10.3c0.3-1.2,0.6-2.1,0.9-2.7
						c0.1-0.3,0.2-0.5,0.3-0.7c0.1-0.2,0.1-0.2,0.1-0.2c0,0,0,0.1-0.1,0.2c-0.1,0.2-0.1,0.4-0.2,0.7c-0.2,0.6-0.5,1.5-0.8,2.7
						c-0.5,2.4-1.1,5.9-0.8,10.3c0.3,4.3,1.6,9.5,4.7,14.4c1.5,2.5,3.4,4.9,5,7.6c1.6,2.7,3.1,5.9,3,9.3c0,3.4-1.3,6.6-2.5,9.5
						c-1.2,2.9-2.4,5.7-2.8,8.6c-0.2,1.4-0.1,2.8,0.1,4.1c0.3,1.3,0.8,2.5,1.3,3.7c1.1,2.3,2.5,4.3,3.3,6.4c0.8,2.1,1.1,4.1,0.7,5.9
						c-0.4,1.7-1.5,3-2.6,3.6c-1,0.7-2.1,0.8-2.7,0.8c-0.3,0-0.6-0.1-0.7-0.1C233.5,285.2,233.4,285.2,233.4,285.2z"/>
				</g>
			</g>
			<g>
				<g>
					<path class="st11" d="M302.8,289.5c-1.4,1.5-2.6,1.8-3.2-1.1c-1.4-6.4-4.8-10.8-6.5-11.4c-1.7-0.6-3.1,1.7-1.9,3.3
						c1,1.3,1.9,4,2.5,6.1c0.5,1.7,0.8,3.5,0.7,5.2c-0.1,1.5-0.1,2.9-0.3,4.1c0,0-0.6,7-2.6,10.2l17.2,12.6l6.8-7.7
						c0,0,4.4-3.8,3.2-9.6c-1.3-5.7-6.4-13.1-6.4-13.1c-1.8-0.9,2.9-10.9,4.7-14.2c1.8-3.2,1-5.4-1.1-5.1
						c-1.4,0.3-7.2,10.2-8.9,13.4C306.2,284.2,304.4,287.7,302.8,289.5"/>
				</g>
			</g>
			<g>
				<g>
					<path class="st12" d="M225.7,391c-5-14.4-3.6-16.5-4.3-21.6l-3.3,21l15.4,47.8l-60.2,0.3h-50.6l10.9-61.6l-11.4-14.2l-0.2,6
						l-34.4,4.7c0,0,15.8-47.9,23.5-68.7c7.7-20.8,22.5-27.6,22.5-27.6c28-9.6,48.9-10.1,73.1-4.2c20.3,4.9,35.6,21.6,39.2,42.2
						c0,0.3,0.1,0.6,0.1,0.8l9.2,44.3l36.3-57.9l21.5,16.8l-21.9,39.8l-18.5,34.2C259.6,410,232,406.4,225.7,391"/>
				</g>
				<g>
					<g>
						<path class="st7" d="M138.5,325.6c-0.1,0,0.4-2.8,0.8-6.2c0.4-3.4,0.5-6.2,0.7-6.2c0.1,0,0.3,2.8-0.1,6.3
							C139.4,322.9,138.6,325.6,138.5,325.6z"/>
					</g>
				</g>
				<g>
					<g>
						<path class="st7" d="M217.3,318.6c0,0,0.1,0.1,0.3,0.4c0.2,0.3,0.5,0.8,0.9,1.3c0.4,0.6,0.9,1.2,1.3,2.1
							c0.5,0.8,1.1,1.8,1.5,2.9c0.5,1.1,1.1,2.3,1.6,3.6c0.6,1.3,1,2.8,1.4,4.3c0.8,3.1,1.4,6.6,1.7,10.2c0.2,3.7,0,7.2-0.4,10.4
							c-0.1,0.8-0.2,1.6-0.3,2.3c-0.1,0.7-0.3,1.5-0.4,2.2c-0.3,1.4-0.6,2.7-0.9,3.8c-0.3,1.2-0.7,2.2-0.9,3.1
							c-0.3,0.9-0.6,1.7-0.8,2.3c-0.2,0.6-0.4,1.1-0.6,1.4c-0.1,0.3-0.2,0.5-0.2,0.5c0,0,0-0.2,0.1-0.5c0.1-0.4,0.3-0.9,0.5-1.5
							c0.2-0.6,0.5-1.4,0.7-2.3c0.2-0.9,0.6-1.9,0.9-3.1c0.3-1.2,0.6-2.4,0.8-3.8c0.1-0.7,0.3-1.4,0.4-2.1c0.1-0.7,0.2-1.5,0.3-2.3
							c0.4-3.1,0.6-6.6,0.3-10.3c-0.2-3.6-0.8-7.1-1.6-10.1c-0.4-1.5-0.8-3-1.4-4.3c-0.5-1.3-1-2.5-1.5-3.6c-0.5-1.1-1-2-1.5-2.9
							c-0.4-0.9-0.9-1.5-1.2-2.1c-0.3-0.5-0.6-1-0.8-1.3C217.3,318.8,217.2,318.6,217.3,318.6z"/>
					</g>
				</g>
				<g>
					<g>
						<path class="st7" d="M254.8,375.7c-0.1,0-0.2-3.8-0.1-8.5c0.1-4.7,0.3-8.5,0.4-8.5c0.1,0,0.2,3.8,0.1,8.5
							C255.1,371.9,254.9,375.7,254.8,375.7z"/>
					</g>
				</g>
				<g>
					<g>
						<path class="st7" d="M262.1,374.9c-0.1,0.1-1.6-3.4-3.3-7.7c-1.7-4.3-3-7.8-2.9-7.9c0.1-0.1,1.6,3.4,3.3,7.7
							C260.9,371.4,262.2,374.9,262.1,374.9z"/>
					</g>
				</g>
				<g>
					<g>
						<path class="st13" d="M223.3,406.4c0,0-0.1,0-0.3,0c-0.2,0-0.4,0-0.7-0.1c-0.3,0-0.7-0.1-1.2-0.1c-0.5-0.1-1-0.1-1.7-0.1
							c-2.5-0.1-6.1,0.3-10.4,1.5c-4.3,1.2-9.3,3.1-15,4.8c-2.8,0.8-5.9,1.5-9.2,1.7c-3.2,0.2-6.7-0.1-9.9-1.3
							c-3.3-1.2-6.2-2.9-9-4.5c-2.8-1.6-5.5-3.1-8.3-4.1c-5.5-2-11-2.1-15.4-1.3c-2.2,0.4-4.1,1-5.8,1.6c-1.7,0.6-3,1.3-4.1,1.9
							c-1.1,0.6-1.9,1.2-2.4,1.6c-0.3,0.2-0.5,0.3-0.6,0.4c-0.1,0.1-0.2,0.1-0.2,0.1c0,0,1-1,3.2-2.3c1.1-0.6,2.4-1.4,4.1-2
							c1.6-0.7,3.6-1.3,5.8-1.7c4.4-0.8,10-0.8,15.6,1.2c2.8,1,5.6,2.6,8.3,4.2c2.8,1.6,5.7,3.3,8.9,4.4c3.2,1.2,6.5,1.5,9.7,1.3
							c3.2-0.2,6.2-0.9,9.1-1.7c5.7-1.6,10.7-3.6,15-4.7c4.3-1.1,8-1.5,10.5-1.4c0.6,0,1.2,0,1.7,0.1c0.5,0.1,0.9,0.1,1.2,0.2
							c0.3,0,0.5,0.1,0.7,0.1C223.3,406.3,223.3,406.3,223.3,406.4z"/>
					</g>
				</g>
				<g>
					<g>
						<path class="st13" d="M220.3,368.5c0,0-0.3,0.1-0.8,0.1c-0.3,0-0.6,0.1-1,0.1c-0.4,0.1-0.8,0.2-1.3,0.3
							c-2,0.5-4.7,1.6-7.7,3.8c-1.5,1.1-3.1,2.3-4.8,3.6c-1.7,1.3-3.5,2.8-5.6,4.1c-2.1,1.3-4.4,2.5-7.1,3c-1.3,0.3-2.7,0.4-4.1,0.4
							c-1.4,0-2.8-0.2-4.2-0.5c-5.6-1.2-10.4-3.7-14.7-5.8c-4.3-2.2-8.4-3.8-12-4.5c-3.6-0.8-6.6-0.6-8.6-0.1
							c-1,0.2-1.8,0.5-2.3,0.7c-0.5,0.2-0.8,0.3-0.8,0.3c0,0,0.2-0.1,0.7-0.4c0.5-0.2,1.3-0.5,2.2-0.8c2-0.5,5.1-0.8,8.7,0
							c3.6,0.7,7.8,2.3,12.1,4.5c4.4,2.1,9.1,4.6,14.6,5.8c1.4,0.3,2.7,0.4,4.1,0.5c1.3,0,2.7-0.1,4-0.4c2.6-0.5,4.9-1.7,6.9-2.9
							c2.1-1.3,3.9-2.7,5.6-4c1.7-1.3,3.3-2.6,4.8-3.6c3-2.1,5.9-3.3,7.9-3.7c0.5-0.1,1-0.2,1.4-0.2c0.4,0,0.7,0,1,0
							C220,368.5,220.3,368.5,220.3,368.5z"/>
					</g>
				</g>
				<g>
					<g>
						<path class="st13" d="M275.6,384.6c0,0-0.1,0.2-0.3,0.4c-0.2,0.3-0.6,0.7-1.1,1.1c-1,0.9-2.7,2-5.1,2.6
							c-2.3,0.7-5.3,0.9-8.4,0.5c-3.2-0.4-6.5-1.4-10-2.5c-3.5-1.1-6.8-2-10-2.3c-3.1-0.3-6,0.2-8.2,1c-2.2,0.8-3.8,2-4.7,2.9
							c-0.5,0.5-0.8,0.9-1,1.1c-0.2,0.3-0.3,0.4-0.4,0.4c0,0,0.1-0.2,0.3-0.5c0.2-0.3,0.5-0.7,0.9-1.2c0.9-1,2.5-2.2,4.8-3.1
							c2.3-0.9,5.2-1.3,8.4-1.1c3.2,0.2,6.6,1.2,10.1,2.3c3.5,1.1,6.8,2.1,9.9,2.5c3.1,0.4,6,0.2,8.3-0.4c2.3-0.6,4-1.6,5-2.4
							C275.1,385.2,275.6,384.6,275.6,384.6z"/>
					</g>
				</g>
				<g>
					<g>
						<path class="st13" d="M292.9,355.5c0,0-0.1,0.1-0.3,0.3c-0.2,0.2-0.5,0.4-0.9,0.6c-0.8,0.5-2.2,0.9-3.9,0.9
							c-1.7,0-3.7-0.5-5.7-1.4c-2-0.9-4.1-2.2-6.3-3.3c-2.3-1.1-4.6-1.7-6.8-1.5c-2.2,0.1-4.1,0.7-5.5,1.5c-2.9,1.5-4.1,3.3-4.2,3.2
							c0,0,0.1-0.1,0.2-0.3c0.1-0.2,0.4-0.5,0.7-0.8c0.6-0.7,1.7-1.6,3.2-2.4c1.5-0.8,3.4-1.5,5.7-1.6c2.2-0.2,4.7,0.4,7,1.5
							c2.3,1.1,4.3,2.4,6.3,3.4c2,0.9,3.9,1.4,5.5,1.5c1.6,0.1,2.9-0.3,3.8-0.7C292.4,355.8,292.8,355.4,292.9,355.5z"/>
					</g>
				</g>
				<g>
					<g>
						<path class="st13" d="M304.9,329.8c0,0-0.4,0.2-1.2,0.5c-0.7,0.3-1.8,0.9-3,1.7c-1.2,0.8-2.7,1.8-4.5,2.5
							c-1.8,0.7-4,1.1-6.2,1.1c-2.3,0-4.4-0.6-6.2-1.4c-1.8-0.8-3.2-1.8-4.3-2.8c-1.1-1-1.8-1.9-2.3-2.6c-0.2-0.3-0.4-0.6-0.5-0.8
							c-0.1-0.2-0.2-0.3-0.1-0.3c0.1-0.1,1,1.5,3.2,3.4c1.1,0.9,2.5,1.9,4.3,2.6c1.7,0.7,3.8,1.2,6,1.3c2.2,0,4.3-0.3,6-1
							c1.8-0.6,3.2-1.6,4.5-2.3c1.3-0.7,2.3-1.3,3.1-1.5C304.4,329.9,304.9,329.8,304.9,329.8z"/>
					</g>
				</g>
				<g>
					<g>
						<path class="st13" d="M252.5,347.7c0,0-0.4-0.1-1.1-0.1c-0.7,0-1.8,0.2-2.9,0.8c-1.2,0.6-2.4,1.6-3.7,2.7
							c-1.4,1.1-3.1,2.1-5.1,2.7c-4,1.2-7.9,0.4-10.3-0.7c-1.2-0.5-2.1-1.2-2.7-1.6c-0.6-0.5-0.9-0.8-0.8-0.8
							c0.1-0.1,1.3,1.1,3.7,2.1c2.4,1,6.1,1.7,10,0.5c3.9-1,6.3-4.1,8.8-5.2c1.2-0.6,2.4-0.7,3.1-0.7c0.4,0,0.7,0.1,0.9,0.1
							C252.4,347.7,252.5,347.7,252.5,347.7z"/>
					</g>
				</g>
				<g>
					<g>
						<path class="st13" d="M246,322.3c-0.1,0.1-1.3-1-3.7-1.6c-1.2-0.3-2.7-0.4-4.4-0.1c-1.6,0.3-3.3,1-4.8,2.2
							c-1.4,1.2-2.5,2.8-3.6,4.1c-1.1,1.3-2.4,2.2-3.7,2.6c-1.2,0.4-2.4,0.3-3.1,0.1c-0.3-0.1-0.6-0.3-0.7-0.4
							c-0.2-0.1-0.2-0.2-0.2-0.2c0,0,0.3,0.2,1,0.4c0.7,0.2,1.7,0.2,2.9-0.2c1.2-0.4,2.4-1.3,3.5-2.6c1.1-1.2,2.1-2.8,3.6-4.1
							c1.5-1.3,3.4-2,5-2.3c1.7-0.3,3.3-0.1,4.5,0.2c1.3,0.3,2.2,0.8,2.8,1.2C245.7,322.1,246,322.3,246,322.3z"/>
					</g>
				</g>
				<g>
					<g>
						<path class="st13" d="M166.5,348.2c0-0.1,0.8,0.3,2.4,0.5c1.5,0.2,3.8,0.3,6.5-0.3c2.7-0.6,5.8-1.8,9.1-3.6
							c3.2-1.8,6.6-4,10.5-5.9c3.9-1.8,8-2.8,11.7-3.1c3.7-0.3,7.1,0,9.9,0.5c2.8,0.6,4.9,1.3,6.4,2c0.7,0.3,1.3,0.6,1.6,0.8
							c0.4,0.2,0.6,0.3,0.6,0.3c0,0-0.8-0.3-2.3-0.9c-1.5-0.6-3.6-1.3-6.4-1.8c-2.7-0.5-6.1-0.8-9.8-0.4c-3.7,0.3-7.7,1.3-11.5,3.1
							c-3.8,1.8-7.3,4.1-10.5,5.8c-3.3,1.8-6.4,3-9.2,3.6c-2.8,0.6-5.1,0.4-6.7,0.1c-0.8-0.1-1.4-0.3-1.8-0.5
							C166.7,348.3,166.5,348.2,166.5,348.2z"/>
					</g>
				</g>
				<g>
					<g>
						<path class="st13" d="M173.8,301.3c0,0-0.2,0.1-0.6,0.4c-0.4,0.2-1,0.5-1.7,0.7c-1.6,0.5-4,0.8-6.9,0.3
							c-1.5-0.2-3-0.7-4.6-1.3c-1.6-0.6-3.3-1.5-5-2.4c-3.4-1.8-7.1-4.1-11.4-5.3c-2.1-0.6-4.3-1-6.4-1.1c-1-0.1-2.1-0.1-3.1-0.1
							c-1,0-2,0-2.9,0.2c-3.8,0.4-7.2,1.3-9.9,2.4c-2.7,1.1-4.7,2.3-6.1,3.2c-0.7,0.5-1.2,0.8-1.5,1.1c-0.4,0.2-0.5,0.4-0.6,0.4
							c0,0,0.2-0.2,0.5-0.4c0.3-0.3,0.8-0.7,1.5-1.2c1.3-1,3.4-2.2,6.1-3.4c2.7-1.2,6.1-2.2,10-2.6c1-0.1,2-0.1,3-0.2
							c1,0,2.1,0,3.1,0.1c2.1,0.1,4.3,0.6,6.5,1.2c4.4,1.2,8.1,3.5,11.4,5.3c1.7,0.9,3.3,1.8,4.9,2.4c1.6,0.6,3.1,1.1,4.5,1.4
							c2.9,0.5,5.3,0.3,6.8-0.2C173,301.7,173.8,301.2,173.8,301.3z"/>
					</g>
				</g>
				<g>
					<g>
						<path class="st13" d="M242.4,304c0,0-0.1,0.1-0.3,0.3c-0.2,0.2-0.6,0.4-1,0.6c-1,0.5-2.5,0.8-4.4,0.6c-1.9-0.2-4.1-1-6.2-2.4
							c-2.1-1.3-4.2-3.1-6.6-4.6c-2.4-1.5-5-2.3-7.5-2.5c-2.4-0.2-4.7,0.1-6.4,0.5c-3.6,1-5.4,2.5-5.5,2.4c0,0,0.1-0.1,0.3-0.3
							c0.2-0.2,0.5-0.4,1-0.7c0.9-0.6,2.3-1.2,4.1-1.8c1.8-0.5,4.1-0.8,6.6-0.6c2.5,0.2,5.2,1,7.7,2.5c2.5,1.5,4.5,3.3,6.6,4.6
							c2,1.4,4.1,2.2,5.9,2.4c1.8,0.3,3.3,0,4.3-0.4C241.9,304.4,242.4,304,242.4,304z"/>
					</g>
				</g>
				<g>
					<g>
						<path class="st13" d="M138,327.8c0,0-0.5,0-1.5-0.1c-1-0.1-2.4-0.3-4-0.5c-1.7-0.2-3.7-0.5-6-0.8c-2.2-0.3-4.7-0.6-7.3-0.7
							c-2.6-0.1-5.1,0.1-7.3,0.6c-2.2,0.5-4.1,1.3-5.5,2.2c-2.9,1.8-4,3.7-4.1,3.6c0,0,0-0.1,0.2-0.3c0.1-0.2,0.3-0.5,0.6-0.9
							c0.6-0.7,1.6-1.8,3.1-2.7c1.4-1,3.4-1.8,5.6-2.4c2.2-0.5,4.8-0.7,7.4-0.6c2.6,0.1,5.1,0.5,7.3,0.8c2.2,0.3,4.2,0.7,5.9,0.9
							c1.6,0.3,3,0.5,4,0.7C137.5,327.7,138,327.8,138,327.8z"/>
					</g>
				</g>
			</g>
			<g>
				<g>
					<g>
						<path class="st12" d="M222.8,227.4c0,0,0.5,0.6,0.9,2c0.4,1.3,0.6,3.4,0.1,5.9c-0.4,2.5-1.5,5.2-2.1,8.4c-0.3,1.6-0.4,3.3,0,5
							c0.3,1.7,1,3.4,1.6,5.2c0.6,1.8,1.1,3.6,1,5.5c-0.1,1.8-0.6,3.5-1.2,5.1c-1.2,3.1-2.5,5.7-2.6,8.2c-0.3,2.4,0.3,4.4,1.1,5.6
							c0.8,1.1,1.5,1.5,1.4,1.6c0,0-0.2-0.1-0.5-0.3c-0.3-0.2-0.7-0.6-1.1-1.2c-0.8-1.1-1.5-3.2-1.3-5.7c0.1-1.2,0.4-2.6,0.9-4
							c0.5-1.4,1.1-2.8,1.7-4.3c0.6-1.5,1-3.2,1.1-4.9c0.1-1.7-0.4-3.5-1-5.3c-0.6-1.8-1.3-3.5-1.6-5.3c-0.4-1.8-0.3-3.6,0-5.2
							c0.6-3.3,1.7-6,2.2-8.4c0.5-2.4,0.4-4.4,0-5.7C223.2,228.1,222.8,227.5,222.8,227.4z"/>
					</g>
				</g>
				<g>
					<g>
						<g>
							<g>
								<g>
									<g>
										<path class="st11" d="M196.7,281.5c1.8-9.8,3.8-20.1,3.8-20.1s13,0.1,18.5-15.9c5.3-15.3,9.1-52,9.1-52l0,0
											c-16.8-10.6-39.2-9.5-54.7,2.8l0,0l-12.9,79.7c-1.5,9.3,5.3,17.9,15.2,19.4h0C185.6,297.2,195,290.9,196.7,281.5z"/>
									</g>
								</g>
								<g>
									<g>
										<g>
											<path class="st7" d="M218.4,221.1c-0.2,1.1-1.2,1.9-2.4,1.8c-1.2-0.1-2-1.2-1.8-2.3c0.2-1.1,1.2-1.9,2.4-1.8
												C217.7,219,218.6,220,218.4,221.1z"/>
										</g>
									</g>
									<g>
										<g>
											<g>
												<path class="st7" d="M222.2,219.4c-0.3,0.2-1.7-1.2-4-1.6c-2.3-0.4-4.1,0.4-4.3,0.1c-0.1-0.1,0.3-0.6,1.1-1
													c0.8-0.4,2.1-0.7,3.5-0.4c1.4,0.3,2.5,1,3.1,1.6C222.2,218.7,222.4,219.3,222.2,219.4z"/>
											</g>
										</g>
									</g>
								</g>
								<g>
									<g>
										<g>
											<path class="st7" d="M195.1,217.5c-0.2,1.1-1.2,1.9-2.4,1.8c-1.2-0.1-2-1.2-1.8-2.3c0.2-1.1,1.2-1.9,2.4-1.8
												C194.4,215.3,195.2,216.3,195.1,217.5z"/>
										</g>
									</g>
									<g>
										<g>
											<g>
												<path class="st7" d="M198.4,216c-0.3,0.2-1.7-1.2-4-1.6c-2.3-0.4-4.1,0.4-4.3,0.1c-0.1-0.1,0.3-0.6,1.1-1
													c0.8-0.4,2.1-0.7,3.5-0.4c1.4,0.3,2.5,1,3.1,1.6C198.4,215.4,198.5,215.9,198.4,216z"/>
											</g>
										</g>
									</g>
								</g>
								<g>
									<g>
										<g>
											<path class="st7" d="M203.7,234.3c0-0.1,1.5-0.1,3.8,0c0.6,0,1.2,0,1.3-0.4c0.2-0.4,0.1-1.1-0.1-1.8
												c-0.3-1.5-0.6-3.1-0.9-4.7c-1.3-6.7-2.1-12.2-1.8-12.2c0.3,0,1.5,5.3,2.8,12.1c0.3,1.7,0.6,3.2,0.9,4.7
												c0.1,0.7,0.3,1.5-0.1,2.3c-0.2,0.4-0.7,0.6-1.1,0.7c-0.4,0-0.7,0-1,0C205.1,234.7,203.7,234.5,203.7,234.3z"/>
										</g>
									</g>
								</g>
								<g>
									<g>
										<path class="st14" d="M200.5,261.5c0,0-11.2-1.2-21-9.8c0,0,3.4,12.2,20.1,13.6L200.5,261.5z"/>
									</g>
								</g>
								<g>
									<g>
										<path class="st14" d="M201.7,239.6c-0.6-1.2-2-2.1-3.4-2.2c-1-0.1-2.1,0.2-2.8,0.9c-0.7,0.7-1.1,1.8-0.7,2.7
											c0.5,1,1.7,1.4,2.8,1.3c1.1-0.1,2.2-0.7,3.2-1.2c0.3-0.2,0.6-0.3,0.8-0.6C201.9,240.3,202,240,201.7,239.6"/>
									</g>
								</g>
								<g>
									<g>
										<g>
											<path class="st7" d="M196.7,234.7c0.4,0-0.1,2.5,1.7,4.6c1.8,2.1,4.5,2.3,4.4,2.7c0,0.2-0.7,0.4-1.8,0.2
												c-1.1-0.2-2.6-0.8-3.7-2.1c-1.1-1.3-1.4-2.8-1.3-3.9C196.2,235.2,196.5,234.7,196.7,234.7z"/>
										</g>
									</g>
								</g>
							</g>
							<g>
								<g>
									<path class="st7" d="M184.4,184.7c4.4,9.7,18.6,21.5,29.7,25.7c-1-2-7.2-7.6-8.2-9.6c4.4,4.8,10.9,11.4,17.6,13
										c0.8,0.2,1.7,0.4,2.4,0.1c1-0.4,1.4-1.4,1.7-2.4c1.2-3.9,2.2-10.9,2.3-15c0.1-4.1-1-8.4-3.9-11.7
										c-3.8-4.2-9.9-6.2-15.8-7.5c-4.9-1.1-10.1-1.7-15-0.8c-4.9,0.9-9.4,3.7-10.9,7.9"/>
								</g>
							</g>
							<g>
								<g>
									<path class="st7" d="M158.2,221.2c0-4.4,0.1-8.6,0.4-11.3c1.1-8.6,3.8-39.7,32.5-31.7l-3.1,8c0,0,2.2,20-12.5,30.8
										c0,0,0.1,20-10.2,27.2C165.4,244.2,158.3,230.7,158.2,221.2"/>
								</g>
							</g>
							<g>
								<g>
									<path class="st11" d="M176.2,215.7c-1.7-0.7-3.6-0.9-5.4-0.6c-1.8,0.3-3.5,1.3-4.5,2.8c-1,1.5-1.3,3.5-1,5.3
										c0.3,1.8,1.2,3.5,2.2,5c0.8,1.1,1.7,2.1,2.8,2.7c1.2,0.6,2.6,0.7,3.8,0.1"/>
								</g>
							</g>
							<g>
								<g>
									<g>
										<path class="st14" d="M173.3,226.2c0.2,0.1-0.8,1-2.3,0.3c-0.7-0.3-1.4-1.2-1.7-2.1c-0.3-0.9-0.4-1.9-0.4-3.1
											c0.1-1.1,0.5-2.2,1.3-3c0.7-0.7,1.8-1.1,2.6-1c1.7,0.3,2,1.5,1.8,1.5c-0.2,0.1-0.7-0.6-1.8-0.5c-1.1,0-2.3,1.3-2.4,3.1
											c-0.1,1.8,0.3,3.6,1.2,4.2C172.4,226.3,173.2,226,173.3,226.2z"/>
									</g>
								</g>
							</g>
						</g>
					</g>
				</g>
				<g>
					<path class="st7" d="M171.8,233.8c-2.6,1.1-3.7,4.4-3.3,7.2c0.4,2.8,1.9,5.3,2.9,8s1.4,5.8-0.1,8.2c-1.2,1.9-3.5,3.1-4.5,5.2
						c-1.7,3.7,1.8,7.6,3,11.5c1.6,5.2-1.6,11.5-6.8,13.2c-5.2,1.7-11.5-1.4-13.3-6.5c-2.8-8,4.4-16.7,2.4-24.9"/>
				</g>
				<g>
					<path class="st7" d="M169.5,181.6c-7.6,6.1-16.5,20.5-17.1,30.2c-0.4,6.2,0.8,12.8-2.1,18.4c-1.6,3.1-4.3,5.6-6.6,8.2
						c-2.3,2.7-4.3,6-3.9,9.5c0.5,4.9,5.4,8.5,6.2,13.4c0.5,2.9-0.6,5.9-1.3,8.8c-0.7,2.9-0.8,6.3,1.1,8.5
						c3.1,3.6,11.9,11.8,14.3,7.6c2.4-4.1-0.4-19.4-0.8-24.2c-1.9-25.1,0.4-50.5,6.7-74.8"/>
				</g>
				<g>
					<g>
						<path class="st7" d="M143.6,272.2c0,0,0.4,0,1.1-0.1c0.3-0.1,0.8-0.3,1.2-0.6c0.4-0.3,0.8-0.8,1.1-1.4
							c0.3-0.6,0.6-1.3,0.6-2.2c0.1-0.8-0.1-1.7-0.5-2.6c-0.8-1.8-2.5-3.3-4.5-4.8c-1-0.7-2.1-1.5-3.1-2.3c-1-0.9-2.1-1.9-2.8-3.2
							c-0.4-0.7-0.6-1.4-0.8-2.1c-0.1-0.8-0.2-1.6-0.1-2.4c0.1-1.6,0.7-3.2,1.4-4.7c1.5-3,4.1-5.4,6.6-8c1.2-1.3,2.4-2.7,3.4-4.2
							c1-1.5,1.6-3.3,2-5.1c0.8-3.7,0.6-7.4,0.4-11c-0.1-1.8-0.1-3.5-0.1-5.3c0-0.9,0.1-1.7,0.2-2.6c0-0.4,0.1-0.8,0.1-1.3
							c0.1-0.4,0.2-0.8,0.2-1.2c1.3-6.5,4.5-11.8,7.9-15.5c1.7-1.8,3.4-3.3,5-4.5c0.8-0.5,1.6-1.1,2.3-1.5c0.7-0.4,1.4-0.8,2-1.1
							c0.6-0.3,1.2-0.5,1.7-0.8c0.5-0.2,0.9-0.3,1.3-0.5c0.3-0.1,0.6-0.2,0.8-0.3c0.2-0.1,0.3-0.1,0.3-0.1c0,0-0.1,0.1-0.3,0.1
							c-0.2,0.1-0.5,0.2-0.8,0.3c-0.3,0.1-0.8,0.3-1.2,0.5c-0.5,0.2-1,0.5-1.7,0.8c-0.6,0.3-1.3,0.7-2,1.1c-0.7,0.4-1.5,1-2.3,1.5
							c-1.6,1.2-3.3,2.7-4.9,4.5c-3.3,3.7-6.4,8.9-7.7,15.3c-0.1,0.4-0.2,0.8-0.2,1.2c0,0.4-0.1,0.8-0.1,1.2
							c-0.1,0.8-0.2,1.7-0.2,2.5c0,1.7,0,3.5,0.1,5.2c0.1,3.6,0.4,7.3-0.4,11.1c-0.4,1.9-1.1,3.7-2.1,5.3c-1,1.6-2.2,3-3.4,4.3
							c-2.5,2.6-5,4.9-6.5,7.9c-0.7,1.4-1.2,3-1.4,4.5c-0.1,0.8,0,1.5,0.1,2.2c0.2,0.7,0.4,1.4,0.7,2c0.7,1.3,1.7,2.3,2.7,3.1
							c1,0.9,2.1,1.6,3.1,2.4c2,1.5,3.7,3.1,4.5,5c0.4,0.9,0.6,1.9,0.5,2.7c-0.1,0.9-0.4,1.6-0.7,2.2c-0.4,0.6-0.8,1.1-1.2,1.4
							c-0.4,0.3-0.9,0.5-1.2,0.6c-0.4,0.1-0.6,0.1-0.8,0.1C143.6,272.2,143.6,272.2,143.6,272.2z"/>
					</g>
				</g>
				<g>
					<g>
						<path class="st12" d="M155.1,285.7c0,0-0.1,0-0.3-0.1c-0.2-0.1-0.5-0.2-0.8-0.5c-0.6-0.6-1.2-1.9-0.9-3.5
							c0.2-1.7,1.5-3.3,2.5-5.3c0.5-1,0.8-2.2,0.8-3.4c0-1.3-0.3-2.6-0.8-3.9c-0.5-1.3-1.2-2.6-2.1-4c-0.8-1.3-1.8-2.6-2.8-4
							c-0.9-1.4-1.9-2.9-2.6-4.6c-0.7-1.7-1.1-3.6-0.8-5.5c0.3-1.9,1.4-3.7,2.7-5.2c1.3-1.5,2.8-2.9,4.3-4.4c1.4-1.5,2.7-3.1,3.6-5
							c0.9-1.9,1.5-4,1.8-6.1c0.7-4.3,0.5-8.6,0.5-12.7c0-2.1,0.1-4.1,0.2-6.1c0.1-0.5,0.1-1,0.2-1.5c0.1-0.5,0.2-1,0.2-1.5
							c0.1-1,0.4-1.9,0.6-2.8c2-7.4,6.2-13.2,10.4-17.1c2.1-2,4.3-3.4,6.2-4.6c1-0.5,1.9-1.1,2.8-1.5c0.9-0.4,1.7-0.8,2.5-1
							c0.8-0.3,1.4-0.5,2-0.7c0.6-0.2,1.1-0.3,1.5-0.4c0.4-0.1,0.7-0.2,0.9-0.2c0.2,0,0.3-0.1,0.3-0.1c0,0-0.1,0-0.3,0.1
							c-0.2,0.1-0.5,0.2-0.9,0.3c-0.4,0.1-0.9,0.2-1.5,0.4c-0.6,0.2-1.3,0.5-2,0.7c-0.8,0.3-1.5,0.7-2.4,1.1c-0.9,0.4-1.8,1-2.8,1.5
							c-1.9,1.2-4,2.7-6.1,4.7c-4.1,3.9-8.3,9.6-10.2,16.9c-0.2,0.9-0.5,1.8-0.6,2.8c-0.1,0.5-0.2,1-0.2,1.4c0,0.5-0.1,1-0.1,1.5
							c-0.2,2-0.2,4-0.2,6.1c0,4.1,0.2,8.4-0.5,12.8c-0.3,2.2-0.9,4.3-1.8,6.3c-0.9,2-2.2,3.7-3.7,5.2c-1.4,1.5-3,2.8-4.2,4.3
							c-1.3,1.5-2.3,3.2-2.6,5c-0.3,1.8,0.1,3.7,0.7,5.3c0.7,1.6,1.6,3.1,2.5,4.5c0.9,1.4,1.9,2.7,2.7,4c0.8,1.3,1.5,2.7,2.1,4
							c0.5,1.4,0.8,2.7,0.8,4.1c0,1.3-0.4,2.5-0.9,3.6c-1.1,2-2.3,3.6-2.6,5.2c-0.2,1.6,0.2,2.8,0.8,3.4
							C154.6,285.6,155.1,285.6,155.1,285.7z"/>
					</g>
				</g>
				<g>
					<g>
						<path class="st12" d="M225.6,213.5c0,0-0.1-0.1-0.3-0.4c-0.2-0.3-0.5-0.7-0.9-1.2c-0.8-1.1-1.8-2.7-3.1-4.5
							c-2.6-3.9-6.2-9.2-10.1-15.1c-2-2.9-4.1-5.5-6.4-7.5c-2.3-2-4.8-3.2-7-3.9c-2.2-0.6-4.1-0.6-5.4-0.5c-1.3,0.2-2,0.4-2,0.3
							c0,0,0.2-0.1,0.5-0.2c0.3-0.1,0.8-0.2,1.5-0.4c1.3-0.2,3.2-0.3,5.5,0.3c2.3,0.6,4.8,1.9,7.2,3.9c2.4,2,4.5,4.7,6.5,7.6
							c4,5.9,7.4,11.3,10,15.2c1.2,1.9,2.2,3.5,3,4.6c0.3,0.5,0.6,0.9,0.8,1.3C225.5,213.3,225.6,213.5,225.6,213.5z"/>
					</g>
				</g>
			</g>
			<g>
				<g>
					<g>
						<polygon class="st7" points="183.1,274.8 196,330.3 207.4,328.3 198.3,272.2 						"/>
					</g>
					<g>
						<path class="st7" d="M194.7,267.7c3.7-1.2,4.8-7.7,4.8-11.6c0-5.3-4.7-7.9-8.5-8.4c-3.9-0.5-7.9,1.7-9.7,5.2
							c-1.8,3.5-1.2,8,1.2,11c2.5,3,6.7,4.5,10.5,3.7"/>
					</g>
					<g>
						<polygon class="st5" points="174.7,265.1 177.6,288.1 212.3,280.7 206.2,260.2 						"/>
					</g>
					<g class="st6">
						<polygon class="st9" points="207.9,265.9 183.1,269.2 185.7,278.6 210.4,274.1 						"/>
					</g>
					<g>
						<g>
							<path class="st9" d="M199.5,256.6c0,0.1-1.1,0.3-2.8,0.5c-1.7,0.2-4.2,0.5-6.8,0.7c-2.7,0.2-5.1,0.2-6.9,0.2
								c-1.8,0-2.8-0.1-2.8-0.2c0-0.1,1.1-0.1,2.8-0.2c1.8-0.1,4.2-0.2,6.8-0.4c2.7-0.2,5.1-0.4,6.8-0.5
								C198.4,256.6,199.5,256.5,199.5,256.6z"/>
						</g>
					</g>
					<g>
						<polygon class="st7" points="185.8,286.3 200.1,283.3 200.1,284.7 186,287.4 						"/>
					</g>
				</g>
				<g>
					<g>
						<path class="st11" d="M162.6,317.2l6.2-3.2c0,0,10.2-21.7,13.1-22.9c2.3-0.9,15.5-4.9,20.2-6.3c0.9-0.3,1.8,0.2,2.1,1.1l0,0
							c0.3,0.9-0.2,1.8-1,2.1l-15.4,5.4l0.3,1.3l15.7-4.6c1.6-0.4,3.4,1.8-1.5,3.9l-12.9,4.5l0.3,0.8l13.8-2.3
							c0.7-0.1,2.6-0.3,2.8,0.4c0,0,1.3,1.4-2.3,3c-1.2,0.6-12.8,3.7-12.8,3.7l0.8,0.9l12.7-1.1c0.9-0.1,1.8,0.6,1.9,1.5l0,0
							c0.2,0.9-0.5,1.8-1.4,2l-13.1,2.8l-7,10.4c-1.5,2.2-3.7,3.9-6.3,4.6l-12.7,3.9L162.6,317.2z"/>
					</g>
					<g>
						<g>
							<path class="st14" d="M202,284.8c0,0-0.1,0.1-0.4,0.2c-0.4,0.1-0.8,0.3-1.3,0.5c-1.2,0.4-2.9,0.9-4.8,1.6
								c-2.1,0.7-4.5,1.4-7.2,2.3c-1.4,0.4-2.8,0.9-4.3,1.3c-0.4,0.1-0.7,0.2-1.1,0.4l-0.6,0.2c-0.2,0.1-0.4,0.1-0.5,0.2
								c-0.6,0.4-1.1,1-1.6,1.7c-1.9,2.6-3.4,5.4-4.7,7.9c-1.3,2.5-2.5,4.8-3.5,6.7c-0.9,1.9-1.7,3.4-2.3,4.6
								c-0.2,0.5-0.5,0.9-0.6,1.2c-0.1,0.3-0.2,0.4-0.2,0.4c0,0,0-0.2,0.2-0.5c0.1-0.3,0.3-0.8,0.5-1.3c0.5-1.1,1.2-2.7,2.1-4.7
								c0.9-2,2-4.3,3.4-6.8c1.3-2.5,2.8-5.3,4.8-8c0.5-0.7,1-1.3,1.8-1.8c0.2-0.1,0.4-0.2,0.6-0.2l0.6-0.2c0.4-0.1,0.8-0.2,1.1-0.3
								c1.5-0.5,2.9-0.9,4.3-1.3c2.7-0.8,5.2-1.6,7.2-2.2c2-0.6,3.7-1.1,4.9-1.4c0.5-0.1,1-0.3,1.3-0.4
								C201.8,284.8,202,284.8,202,284.8z"/>
						</g>
					</g>
				</g>
				<g>
					<path class="st12" d="M93.3,397.9L93.3,397.9c9.7,9.3,25.2,8.3,33.7-2.1l54-66.6l-19.2-24.4L94,364
						C83.9,372.9,83.5,388.6,93.3,397.9z"/>
				</g>
				<g>
					<g>
						<path class="st7" d="M130.1,393c0,0,0.1-0.1,0.2-0.3c0.2-0.2,0.4-0.5,0.7-0.9c0.7-0.8,1.6-2.1,2.8-3.6
							c2.5-3.2,6.1-7.7,10.6-13.4c9.1-11.4,21.7-27.4,36.2-45.7l0,0.3c-4.3-5.4-8.7-11.1-13.3-16.9c-2-2.6-4-5.1-5.9-7.5l0.4,0
							c-19.7,17.4-36.9,33.2-49.5,44.4c-6.3,5.6-11.3,10.1-14.8,13.2c-1.7,1.5-3.1,2.7-4.1,3.5c-0.5,0.4-0.8,0.7-1.1,0.9
							c-0.2,0.2-0.4,0.3-0.4,0.3s0.1-0.1,0.3-0.3c0.2-0.2,0.6-0.5,1-0.9c0.9-0.8,2.3-2,4-3.6c3.5-3.1,8.5-7.7,14.7-13.3
							c12.5-11.3,29.6-27.2,49.4-44.6l0.2-0.2l0.2,0.2c1.9,2.4,3.9,4.9,5.9,7.5c4.6,5.8,9,11.4,13.3,16.9l0.1,0.2l-0.1,0.2
							c-14.5,18.2-27.3,34.2-36.4,45.6c-4.6,5.7-8.2,10.2-10.7,13.4c-1.3,1.5-2.2,2.7-2.9,3.6c-0.3,0.4-0.6,0.7-0.8,0.9
							C130.2,392.9,130.1,393,130.1,393z"/>
					</g>
				</g>
			</g>
			<g>
				<g>
					<path class="st13" d="M137,383.7c0,0-0.3,0.7-1.4,1.6c-1,0.9-3,1.8-5.4,1.9c-1.2,0-2.6-0.1-4-0.5c-1.4-0.4-2.8-1-4.2-1.8
						c-2.9-1.5-5.8-3.5-9.3-4.6c-3.5-1.1-7.1-1.3-10.2-1c-3.2,0.4-5.9,1.3-8.1,2.4c-2.2,1.1-3.8,2.2-4.8,3.1c-1,0.9-1.6,1.4-1.6,1.4
						c0,0,0.1-0.2,0.4-0.4c0.3-0.3,0.6-0.7,1.1-1.1c1-0.9,2.6-2.1,4.8-3.2c2.2-1.1,5-2.1,8.2-2.5c3.2-0.4,6.9-0.2,10.4,0.9
						c3.6,1.1,6.5,3.2,9.4,4.7c1.4,0.7,2.8,1.4,4.1,1.8c1.3,0.4,2.7,0.5,3.9,0.5c2.4,0,4.3-0.8,5.3-1.7
						C136.5,384.4,136.9,383.7,137,383.7z"/>
				</g>
			</g>
			<g>
				<g>
					<path class="st13" d="M163.7,349.9c0,0-0.1,0.1-0.4,0.3c-0.3,0.2-0.7,0.5-1.2,0.8c-1.1,0.6-2.9,1.3-5.1,1.5
						c-2.3,0.2-5.1-0.1-7.8-1.5c-2.7-1.3-5.3-3.4-8.3-5.1c-3-1.7-6.1-2.6-9.1-3.1c-2.9-0.4-5.6-0.3-7.8,0c-2.2,0.3-4,0.8-5.2,1.3
						c-1.2,0.4-1.8,0.7-1.8,0.7c0,0,0.1-0.1,0.4-0.2c0.3-0.1,0.7-0.4,1.3-0.6c1.2-0.5,2.9-1.1,5.2-1.4c2.2-0.4,5-0.5,8-0.1
						c3,0.4,6.2,1.4,9.2,3.1c3,1.7,5.6,3.8,8.2,5.1c2.6,1.3,5.3,1.7,7.6,1.5c2.2-0.2,4-0.8,5.1-1.3
						C163.1,350.3,163.7,349.9,163.7,349.9z"/>
				</g>
			</g>
		</g>
		<g>
			<g>
				<path class="st14" d="M314.4,292.3c0,0-0.1,0.4-0.3,1.2c-0.2,0.7-0.6,1.8-1.1,3.1c-0.5,1.3-1.2,2.8-2,4.5
					c-0.4,0.8-0.8,1.7-1.6,2.5c-0.4,0.4-1,0.6-1.6,0.6c-0.6,0-1.2-0.4-1.5-0.8c-0.4-0.4-0.6-1-0.7-1.5c-0.1-0.6,0-1.1,0.1-1.6
					c0.3-1,0.7-1.9,1.1-2.7c0.8-1.6,1.5-3.1,2.1-4.4c0.6-1.2,1-2.2,1.4-3c0.3-0.7,0.6-1.1,0.6-1.1c0,0-0.1,0.4-0.4,1.1
					c-0.3,0.8-0.8,1.8-1.3,3c-0.6,1.3-1.2,2.8-1.9,4.5c-0.4,0.8-0.8,1.7-1,2.6c-0.1,0.5-0.2,0.9-0.1,1.4c0.1,0.5,0.3,0.9,0.6,1.3
					c0.3,0.4,0.7,0.6,1.2,0.6c0.4,0,0.9-0.2,1.2-0.4c0.7-0.6,1.1-1.5,1.5-2.3c0.8-1.6,1.5-3.1,2-4.4c0.5-1.3,1-2.3,1.2-3
					C314.2,292.7,314.4,292.3,314.4,292.3z"/>
			</g>
		</g>
		<g>
			<g>
				<path class="st14" d="M310.6,306.4c0,0.1-0.7-0.2-1.8-0.2c-1.1-0.1-2.8,0.2-4.4,1.2l-0.4,0.3l0-0.5c0.1-0.9,0.1-1.8,0-2.8
					c-0.2-2.6-0.8-4.9-1.4-6.5c-0.6-1.6-1.1-2.5-1-2.6c0,0,0.7,0.8,1.4,2.4c0.7,1.6,1.4,3.9,1.6,6.6c0.1,1,0.1,2,0,2.9l-0.4-0.2
					c1.7-1.1,3.5-1.3,4.7-1.1C310,306,310.6,306.4,310.6,306.4z"/>
			</g>
		</g>
		<g>
			<g>
				<path class="st14" d="M317.9,297.9c0,0-0.1,0.3-0.3,0.9c-0.2,0.6-0.6,1.4-1,2.5c-0.2,0.5-0.5,1.1-0.7,1.7
					c-0.3,0.6-0.5,1.3-1,1.9c-0.4,0.6-1.2,1.2-2.1,1.3c-0.4,0.1-0.9,0-1.3-0.3c-0.4-0.2-0.7-0.7-0.9-1.1c-0.3-0.9-0.3-1.8-0.1-2.6
					c0.1-0.8,0.4-1.6,0.6-2.3c0.5-1.4,1.1-2.6,1.6-3.6c0.5-0.9,0.9-1.7,1.2-2.4c0.3-0.6,0.5-0.9,0.5-0.8c0.1,0-0.4,1.3-1.4,3.4
					c-0.5,1-1,2.2-1.5,3.6c-0.2,0.7-0.4,1.4-0.6,2.2c-0.1,0.8-0.2,1.6,0.1,2.3c0.3,0.7,1,1.2,1.7,1c0.7-0.1,1.3-0.5,1.7-1.1
					c0.4-0.6,0.7-1.2,1-1.8c0.3-0.6,0.5-1.1,0.8-1.7c0.5-1,0.9-1.8,1.1-2.4C317.7,298.2,317.8,297.9,317.9,297.9z"/>
			</g>
		</g>
	</g>
</g>
</svg>
